<svg xmlns="http://www.w3.org/2000/svg" viewBox="0 0 150 150"><defs><style>.a{fill:#333c45;}</style></defs><title>-icons</title><path class="a" d="M78.62,83.94C77.29,89,76.21,94.1,76.1,97.25L60.92,93.31l0.4-5.68L61,87.54c-4.67,3.4-10.83,4.28-17.25,2.62C32.78,87.31,28.31,77.63,30.55,69c3.66-14.08,18-17.45,37.2-12.47l0.17-.66c0.78-3,.29-7.49-8-9.65a31.37,31.37,0,0,0-16,.21L43.59,34.73a46.17,46.17,0,0,1,22.33.61C84,40,86.88,52.14,83.54,65ZM65.57,67.18c-8.87-2.3-16.29-2-18,4.46-1.12,4.32,1.21,7.17,5,8.15A9.62,9.62,0,0,0,63,75.86,12.4,12.4,0,0,0,64,73.06Z"/><path class="a" d="M119.49,35c-1.21,4.67-5.63,7.54-11.29,6.07-5.33-1.38-7.79-6-6.58-10.71s5.74-7.49,11.17-6.08,7.79,5.93,6.69,10.72M98.17,45.56L115,49.94,101,104.14,84.09,99.76Z"/><path class="a" d="M36.69,121.35a10.64,10.64,0,0,0,.13,2H34.52l-0.15-.82h0a3,3,0,0,1-2.36,1A2.52,2.52,0,0,1,29.3,121c0-2.14,1.92-3.15,4.83-3.15v-0.1c0-.45-0.24-1.08-1.5-1.08a4.61,4.61,0,0,0-2.27.62l-0.47-1.65a6.78,6.78,0,0,1,3.2-.74c2.74,0,3.6,1.62,3.6,3.57v2.88Zm-2.48-1.9c-1.35,0-2.39.32-2.39,1.3a0.92,0.92,0,0,0,1,1,1.41,1.41,0,0,0,1.33-.94,1.79,1.79,0,0,0,.05-0.44v-0.89Z"/><path class="a" d="M38.17,117.86c0-1.08,0-2-.07-2.76h2.22l0.12,1.14h0a3.2,3.2,0,0,1,2.74-1.33c1.8,0,3.42,1.56,3.42,4.19,0,3-1.9,4.41-3.74,4.41a2.56,2.56,0,0,1-2.14-.94h0v4.09H38.17v-8.8Zm2.56,1.94a2.65,2.65,0,0,0,.05.54,1.55,1.55,0,0,0,1.5,1.21c1.11,0,1.77-.92,1.77-2.32s-0.59-2.31-1.73-2.31a1.61,1.61,0,0,0-1.53,1.3,2,2,0,0,0-.05.45v1.13Z"/><path class="a" d="M48,117.86c0-1.08,0-2-.07-2.76h2.22l0.12,1.14h0A3.2,3.2,0,0,1,53,114.92c1.8,0,3.42,1.56,3.42,4.19,0,3-1.9,4.41-3.74,4.41a2.56,2.56,0,0,1-2.14-.94h0v4.09H48v-8.8Zm2.56,1.94a2.83,2.83,0,0,0,.05.54,1.55,1.55,0,0,0,1.5,1.21c1.11,0,1.77-.92,1.77-2.32s-0.59-2.31-1.73-2.31a1.61,1.61,0,0,0-1.53,1.3,2.13,2.13,0,0,0-.05.45v1.13Z"/><rect class="a" x="57.79" y="111.38" width="2.56" height="11.95"/><path class="a" d="M64.14,120c0.07,1.06,1.13,1.57,2.32,1.57a6.77,6.77,0,0,0,2.27-.35L69.07,123a7.8,7.8,0,0,1-3,.52c-2.79,0-4.39-1.61-4.39-4.19a4.12,4.12,0,0,1,4.16-4.39c2.66,0,3.67,2.07,3.67,4.11a5.93,5.93,0,0,1-.09,1h-5.3Zm3-1.75a1.49,1.49,0,0,0-1.45-1.66,1.69,1.69,0,0,0-1.58,1.66h3Z"/><path class="a" d="M73.59,112.82a1.28,1.28,0,0,1-1.38,1.28,1.28,1.28,0,1,1,1.38-1.28m-2.64,2.29h2.56v8.23H70.95v-8.23Z"/><path class="a" d="M74.92,117.73c0-1,0-1.89-.07-2.63h2.22l0.12,1.14h0.05a3,3,0,0,1,2.54-1.33c1.68,0,2.94,1.13,2.94,3.55v4.86H80.17v-4.56c0-1.06-.37-1.78-1.29-1.78a1.4,1.4,0,0,0-1.31,1,1.89,1.89,0,0,0-.09.64v4.74H74.92v-5.6Z"/><path class="a" d="M84.26,121.12a5,5,0,0,0,2.2.61c0.78,0,1.09-.25,1.09-0.67s-0.25-.64-1.19-1c-1.71-.57-2.37-1.5-2.36-2.48,0-1.55,1.31-2.71,3.35-2.71a5.45,5.45,0,0,1,2.31.49l-0.44,1.77a4.09,4.09,0,0,0-1.78-.47c-0.62,0-1,.25-1,0.66s0.32,0.61,1.33,1c1.56,0.54,2.21,1.35,2.22,2.54,0,1.55-1.2,2.67-3.55,2.67a5.8,5.8,0,0,1-2.66-.59Z"/><path class="a" d="M94.11,112.82a1.27,1.27,0,0,1-1.38,1.28,1.28,1.28,0,1,1,1.38-1.28m-2.64,2.29H94v8.23H91.46v-8.23Z"/><path class="a" d="M103.85,111.39v9.49c0,0.93,0,1.9.07,2.46h-2.27l-0.1-1.19h-0.05a2.87,2.87,0,0,1-2.57,1.38c-2,0-3.52-1.66-3.52-4.22,0-2.78,1.72-4.39,3.68-4.39a2.53,2.53,0,0,1,2.17.93h0v-4.44h2.56Zm-2.56,7.2a2.31,2.31,0,0,0,0-.47,1.54,1.54,0,0,0-1.5-1.24c-1.18,0-1.77,1-1.77,2.34s0.69,2.27,1.75,2.27a1.51,1.51,0,0,0,1.5-1.23,3.31,3.31,0,0,0,0-.59v-1.08Z"/><path class="a" d="M107.66,120c0.07,1.06,1.13,1.57,2.32,1.57a6.72,6.72,0,0,0,2.27-.36l0.34,1.73a7.8,7.8,0,0,1-3,.52c-2.8,0-4.39-1.61-4.39-4.19a4.12,4.12,0,0,1,4.16-4.39C112,114.92,113,117,113,119a6.57,6.57,0,0,1-.08,1h-5.3Zm3-1.75a1.48,1.48,0,0,0-1.45-1.67,1.69,1.69,0,0,0-1.58,1.67h3Z"/><path class="a" d="M114.35,117.82c0-1.21,0-2-.07-2.71h2.19l0.1,1.51h0.07a2.4,2.4,0,0,1,2.22-1.71,2.46,2.46,0,0,1,.54,0v2.41a4.17,4.17,0,0,0-.69-0.07,1.64,1.64,0,0,0-1.75,1.3,3,3,0,0,0-.05.57v4.17h-2.56v-5.52Z"/></svg>