<svg id="Layer_1" data-name="Layer 1" xmlns="http://www.w3.org/2000/svg" viewBox="0 0 203.23 23.01"><defs><style>.cls-1{fill:#333c45;}</style></defs><title>awwwards</title><path class="cls-1" d="M116.32,16.92h-7.75l-1.86,5.7h-4.14l7.78-22.25h4.19l7.78,22.25h-4.14ZM112.43,4.23s-0.5,2.19-.93,3.45l-2,6h5.78l-2-6c-0.4-1.26-.87-3.45-0.87-3.45h-0.06Zm15.84-3.85h7.12a10.11,10.11,0,0,1,4.45.63,6.28,6.28,0,0,1,3.61,6.08,6.42,6.42,0,0,1-3.73,6.09v0.06a5.45,5.45,0,0,1,.75,1.1l4.54,8.3h-4.48l-4.39-8.3h-3.86v8.3h-4V0.38h0Zm7.62,10.43a3.22,3.22,0,0,0,3.48-3.51c0-2.13-.9-3.45-4-3.45h-3.05v7h3.61Zm16-10.43h7.53c6.81,0,11.26,4.07,11.26,11.09s-4.45,11.15-11.26,11.15h-7.53V0.38Zm7.31,18.77c4.48,0,7.34-2.66,7.34-7.68s-2.93-7.61-7.34-7.61h-3.3V19.14h3.3Zm18.66-2.23a8.83,8.83,0,0,0,5.51,2.35c1.68,0,3.21-.87,3.21-2.69,0-4-10.42-3.29-10.42-10.12,0-3.7,3.17-6.45,7.4-6.45a9.35,9.35,0,0,1,6.59,2.38l-1.74,3.29a8.07,8.07,0,0,0-4.89-1.94c-1.86,0-3.33,1.1-3.33,2.66,0,4,10.38,3,10.38,10.09,0,3.54-2.67,6.51-7.28,6.51a10.66,10.66,0,0,1-7.62-3ZM71,0.38L67.41,15.76A20,20,0,0,0,67,18.11H67a18.37,18.37,0,0,0-.4-2.35L62.65,0.38H59.17l-4,15.39a17.5,17.5,0,0,0-.4,2.35H54.72a21.09,21.09,0,0,0-.37-2.35L51.74,4.24l-2,8.4,2.48,10H56.9L60.29,9.46a27.19,27.19,0,0,0,.56-2.91h0.06a26.22,26.22,0,0,0,.56,2.91l3.39,13.16H69.5L75.2,0.37H71ZM96,0.38L92.33,15.76A20,20,0,0,0,92,18.11H91.89a17.13,17.13,0,0,0-.4-2.35L87.57,0.38H84.09l-4,15.39a17.2,17.2,0,0,0-.4,2.35H79.64a20,20,0,0,0-.37-2.35L76.64,4.19l-2,8.4,2.5,10h4.63L85.2,9.46a27.58,27.58,0,0,0,.56-2.91h0.06a26.84,26.84,0,0,0,.56,2.91l3.39,13.16h4.63l5.7-22.25H96ZM13.75,16.92H6l-1.87,5.7H0L7.78,0.37H12l7.78,22.24H15.62ZM9.86,4.23s-0.5,2.19-.93,3.45l-2,6h5.79l-2-5.95c-0.4-1.25-.87-3.45-0.87-3.45H9.86ZM41.65,15.76a17.51,17.51,0,0,1,.4,2.35h0.06a20.26,20.26,0,0,1,.37-2.35L46.13,0.37h4.14L44.57,22.62H39.94L36.55,9.46A27.4,27.4,0,0,1,36,6.55H35.93a26.14,26.14,0,0,1-.56,2.91L32,22.62H27.34L21.81,0.38h4.14l3.49,15.39a19.58,19.58,0,0,1,.37,2.35h0.06a17.43,17.43,0,0,1,.4-2.35l4-15.39h3.48ZM199.2,0.32a3.89,3.89,0,1,1-3.75,4s0-.09,0-0.14A3.82,3.82,0,0,1,199.2.32h0Zm0,7.33A3.44,3.44,0,1,0,195.93,4q0,0.08,0,.16a3.32,3.32,0,0,0,3.2,3.43h0.07ZM198,2.06h1.41a1.18,1.18,0,0,1,1.24,1.25,1.12,1.12,0,0,1-.82,1.15v0l0.14,0.24,0.84,1.64h-0.52l-0.91-1.8h-0.92v1.8H198V2.06h0Zm1.36,2.09a0.77,0.77,0,0,0,.81-0.85,0.76,0.76,0,0,0-.69-0.82h-1V4.15h0.9Z" transform="translate(0 0.01)"/></svg>