<svg xmlns="http://www.w3.org/2000/svg" viewBox="0 0 150 150"><defs><style>.a{fill:#333c45;}.a,.b{fill-rule:evenodd;}.b{fill:#fff;}</style></defs><title>-icons</title><path class="a" d="M118.11,75a42.86,42.86,0,1,0-42.86,42.86A42.86,42.86,0,0,0,118.11,75h0Z"/><path class="b" d="M56.7,50.91a3.24,3.24,0,0,0-5.14-2.23l-0.22.18a3.06,3.06,0,0,0,.07-1.61,2.9,2.9,0,0,0-5.09-1.13l-0.56.7-2.91,3.64-2.5,3.12-0.16.21,0.11,0.09,1,0.78,3.67,2.94,3.63,2.91,0.93,0.74a0.22,0.22,0,0,0,.1.07l0.18-.23L52.28,58l3-3.73a6.38,6.38,0,0,0,1.33-2.05,3.32,3.32,0,0,0,.11-1.28h0ZM46,54.42l-1.51-1.21-0.58-.46s0.2-.25.21-0.27L46.91,49a2.28,2.28,0,0,1,.85-0.8,1.35,1.35,0,0,1,1.51.34,1.37,1.37,0,0,1,.31,1.23,2.93,2.93,0,0,1-.63,1l-1.48,1.85L46,54.42h0ZM53.42,53l-1,1.19-2.63,3.28a0.1,0.1,0,0,1,0,0l-0.14-.11L49,56.81l-1.24-1,2.38-3,1.16-1.45a1.43,1.43,0,0,1,1.09-.61A1.34,1.34,0,0,1,53.42,53h0Z"/><path class="b" d="M102,75a26.79,26.79,0,1,0-26.79,26.79A26.79,26.79,0,0,0,102,75h0Z"/><path class="a" d="M75.25,49.57A26.13,26.13,0,0,0,49.82,75H75.25V49.57h0Z"/><path class="a" d="M75.25,100.43A26.13,26.13,0,0,0,100.68,75H75.25v25.43h0Z"/><polygon class="b" points="103.83 45.69 101.59 43.61 94.34 53.13 96.58 55.2 104.53 51.56 99.23 58.52 100.76 61.15 111.64 56.16 110.11 53.53 103.83 56.41 108.29 50.55 106.34 48.11 99.64 51.18 103.83 45.69 103.83 45.69"/><polygon class="b" points="71.31 38.39 74.13 46.43 76.36 46.43 79.19 38.39 79.49 46.43 82.62 46.87 82.17 34.82 78.15 34.37 75.25 42.85 72.35 34.37 68.33 34.82 67.88 46.87 71.01 46.43 71.31 38.39 71.31 38.39"/></svg>