<svg id="Layer_1" data-name="Layer 1" xmlns="http://www.w3.org/2000/svg" viewBox="0 0 279.03 97"><defs><style>.cls-1{fill:#fff;}</style></defs><title>crafted_logo</title><path class="cls-1" d="M28.55,57.11c-1.08-3.78-3.64-5.5-7.1-5.28-6.18.39-9.11,6.2-8.7,12.74,0.38,6.07,3.9,9.7,9.52,9.35a10.85,10.85,0,0,0,7.54-4.22L37,76.94c-3.6,4-8.44,6.35-15.84,6.81C9.77,84.46.78,77.51,0,65.65-0.83,51.81,8,42.91,19.15,42.21c6-.37,9,2.07,10.5,4l1.45-3.94,7.77-.49L37.35,56.56ZM57.31,49.4c3.34-8.18,8-10.07,11.95-10.32a9.41,9.41,0,0,1,5.13.9L71.46,51.8a10,10,0,0,0-5.64-1.43c-4.78.3-8.19,2.76-9.21,12l-2,18.43-12.36.77,3.41-31L39.45,51l1-9.26,17.79-1.11ZM72.55,62.52c-1-15.51,8.82-24.2,18.28-24.79,5.06-.32,9.59,1.47,12.44,6.45l2.13-6.51L116.07,37,112.9,65.81c-0.18,1.7.42,2.13,1.82,2l2.81-.18-1,9.26-4.68.29c-9,.56-10.35-1.7-11.21-4.84l-0.12-.46c-2.9,4.78-6.22,7.24-11.65,7.58-9,.56-15.64-6.44-16.3-17h0Zm29.12-6.32c-0.36-5.7-3.49-9.17-7.89-8.89-5.62.35-8.94,5.81-8.45,13.67,0.36,5.7,3.19,8.9,7.87,8.61C98.63,69.24,102.14,63.67,101.67,56.2ZM150,59.84l1.83-15.78-14.14.88L133.19,85c-1.07,9.82-4.76,11.09-13.09,11.61l-6.28.39,1-8.79,3.75-.23c1.4-.09,2.14-0.42,2.44-3.06l4.4-39.22-6.56.41,1-9.35,6.56-.41L128,22c1.09-9.55,5.45-15.07,14.91-15.66,5.34-.34,9.11,1.31,12,4.32l-6.57,7.64a4.39,4.39,0,0,0-4.07-1.9c-2.06.13-3.5,1.16-3.87,4.18l-1.69,15,14.14-.88,1.64-14.36,12.27-.77-1.64,14.36,9.64-.6-1,9.35-9.65.6-1.8,16.16c-0.5,4.06.56,5.88,2.9,5.73a8.22,8.22,0,0,0,3.85-1.65l4.61,7.5c-2.05,1.72-5,3.5-10.85,3.87-7.49.47-14.18-2.68-12.79-15.06h0ZM196,63.35a15.17,15.17,0,0,0,9.52-4.07l7,7.07c-4.18,3.73-8.65,6-16.8,6.49-13.3.83-21.5-7-22.22-18.41C172.65,40.69,182.63,32,193.77,31.3c13.86-.87,21.83,9.33,20.73,23.29l-28.28,1.77c0.56,4.28,4,7.34,9.75,7h0Zm6-15.11c-0.24-5.24-3.42-8-7.91-7.76s-7.84,3.87-8.1,8.76ZM250.39,10l-7.12.44,1-9.26L263.67,0l-6.31,56.79c-0.18,1.7.42,2.13,1.82,2l2.81-.18-1,9.26-4.68.29c-9,.56-10.55-1.78-11.22-5l-0.14-.65a13.79,13.79,0,0,1-12.19,8c-8.9.56-16-6.41-16.67-17-1-15.51,8.17-24.16,18.56-24.81,5.71-.36,10.27,1.8,12.82,6.42Zm-4.19,38c-0.2-6.18-3.35-10-8.51-9.7-5.71.36-9.15,5.45-8.88,12.85,0.2,6.18,3.43,9.73,8.49,9.41C242.82,60.23,246.44,55,246.19,48Zm26.25,18.89c-3.4-.24-5.6-3.1-5.34-6.69a6,6,0,0,1,6.07-5.87l0.37,0c3.5,0.25,5.71,3,5.44,6.69s-2.84,6.11-6.44,5.85h-0.1Z" transform="translate(0.02)"/></svg>