<svg id="Layer_1" data-name="Layer 1" xmlns="http://www.w3.org/2000/svg" viewBox="0 0 182.02 134.02"><defs><style>.cls-1{fill:#333c45;}</style></defs><title>css</title><path class="cls-1" d="M7.41,114.76a5,5,0,0,0-4,1.63A6.77,6.77,0,0,0,2,121a7.43,7.43,0,0,0,1.36,4.65,4.83,4.83,0,0,0,4,1.63,13.42,13.42,0,0,0,3.58-.63v1.63A11.62,11.62,0,0,1,7,129a6.55,6.55,0,0,1-5.19-2A8.66,8.66,0,0,1,0,121a8.57,8.57,0,0,1,.86-4.15,7.61,7.61,0,0,1,2.47-2.77,7.69,7.69,0,0,1,4-1,9,9,0,0,1,4.2.88l-0.74,1.51A10.66,10.66,0,0,0,7.41,114.76Zm15.43,9.94a3.68,3.68,0,0,1-1.48,3.15,6.18,6.18,0,0,1-4,1.13,9.3,9.3,0,0,1-4.2-.76v-1.76a11.86,11.86,0,0,0,2,.63,13.08,13.08,0,0,0,2.35.38,4.36,4.36,0,0,0,2.59-.63,2.28,2.28,0,0,0,.86-1.89,1.9,1.9,0,0,0-.37-1.26,4.51,4.51,0,0,0-1.11-1,21.76,21.76,0,0,0-2.22-1,6.11,6.11,0,0,1-3-1.89,4.11,4.11,0,0,1-.86-2.77,3.79,3.79,0,0,1,1.36-2.89,5.16,5.16,0,0,1,3.46-1,9.69,9.69,0,0,1,4.2.88L22,115.51a9.75,9.75,0,0,0-3.7-.75,3.89,3.89,0,0,0-2.22.63,2.13,2.13,0,0,0-.74,1.76,3.21,3.21,0,0,0,.25,1.26,2.3,2.3,0,0,0,1,.88,17.49,17.49,0,0,0,2.1,1A9.87,9.87,0,0,1,22,122.18a4.1,4.1,0,0,1,.86,2.52h0Zm11.61,0A3.68,3.68,0,0,1,33,127.84,6.18,6.18,0,0,1,29,129a9.3,9.3,0,0,1-4.2-.76v-1.76a11.86,11.86,0,0,0,2,.63,12,12,0,0,0,2.22.25,4.36,4.36,0,0,0,2.59-.63,2.28,2.28,0,0,0,.86-1.89,1.9,1.9,0,0,0-.37-1.26,4.51,4.51,0,0,0-1.11-1,21.77,21.77,0,0,0-2.22-1,6.12,6.12,0,0,1-3-1.89,4.12,4.12,0,0,1-.86-2.77A3.79,3.79,0,0,1,26.3,114a5.16,5.16,0,0,1,3.46-1,9.69,9.69,0,0,1,4.2.88l-0.37,1.76a9.75,9.75,0,0,0-3.7-.76,3.9,3.9,0,0,0-2.22.63,2.13,2.13,0,0,0-.74,1.76,3.2,3.2,0,0,0,.25,1.26,2.3,2.3,0,0,0,1,.88,17.49,17.49,0,0,0,2.1,1,9.87,9.87,0,0,1,3.33,1.89,3,3,0,0,1,.86,2.39h0ZM50,120.79a8.18,8.18,0,0,1-2.1,5.91A8,8,0,0,1,42,128.84H37V113.37h5.19a8,8,0,0,1,5.68,1.89,7.27,7.27,0,0,1,2.1,5.54h0Zm-4.32.13a4.54,4.54,0,0,0-.86-3.14,3.22,3.22,0,0,0-2.47-1H41.12v8.68H42a3.25,3.25,0,0,0,2.72-1.13,4.65,4.65,0,0,0,1-3.4h0Zm12.47,8.18a6,6,0,0,1-4.57-1.63A5.78,5.78,0,0,1,52,122.93a6.76,6.76,0,0,1,1.48-4.65,5.45,5.45,0,0,1,4.32-1.64A5.94,5.94,0,0,1,61.86,118a5.18,5.18,0,0,1,1.48,4v1.89H56.06a2.23,2.23,0,0,0,.74,1.64,3,3,0,0,0,1.85.63,9.42,9.42,0,0,0,2-.25,7.78,7.78,0,0,0,2-.76v3a5.19,5.19,0,0,1-2,.63,14.91,14.91,0,0,1-2.47.26h0Zm-0.25-9.56a1.57,1.57,0,0,0-1.24.5,2.07,2.07,0,0,0-.62,1.38h3.46A1.74,1.74,0,0,0,59,120a1.2,1.2,0,0,0-1.11-.5h0Zm16.67,5.66a3.36,3.36,0,0,1-1.24,2.89,6.21,6.21,0,0,1-3.7,1,11.77,11.77,0,0,1-2.22-.13,11.39,11.39,0,0,1-2-.5V125.2c0.62,0.25,1.36.5,2.1,0.76a12.09,12.09,0,0,0,2,.25c0.86,0,1.36-.25,1.36-0.63a0.52,0.52,0,0,0-.37-0.5c-0.25-.13-1-0.5-2.1-1a5.7,5.7,0,0,1-2.22-1.51,4,4,0,0,1-.62-2.14,3,3,0,0,1,1.24-2.64,5.83,5.83,0,0,1,3.58-.88,13.35,13.35,0,0,1,2.22.25,7,7,0,0,1,2.1.75l-1.11,2.64a7,7,0,0,0-1.73-.63,8.92,8.92,0,0,0-1.48-.25c-0.62,0-1,.13-1,0.5a0.53,0.53,0,0,0,.37.5c0.25,0.13.86,0.38,2,.88a6.19,6.19,0,0,1,1.85,1,3.46,3.46,0,0,1,.86,1.13,4.81,4.81,0,0,1,.12,1.51h0Zm2.22-11.32a1.59,1.59,0,0,1,.49-1.38,2.72,2.72,0,0,1,1.6-.5,1.91,1.91,0,0,1,1.61.5,1.59,1.59,0,0,1,.49,1.38c0,1.26-.74,1.76-2.22,1.76a1.61,1.61,0,0,1-2-1.76h0Zm4.2,15H76.93V116.89H81v11.95h0Zm13.83-11.95v2l-1.6.63a2.57,2.57,0,0,1,.37,1.38,3.86,3.86,0,0,1-1.36,3,6,6,0,0,1-4,1,2.08,2.08,0,0,1-1-.13,0.77,0.77,0,0,0-.12.5,0.52,0.52,0,0,0,.49.5,3.74,3.74,0,0,0,1.24.13h2c2.59,0,4,1.13,4,3.4a3.72,3.72,0,0,1-1.85,3.4A9.89,9.89,0,0,1,87.79,134a6.67,6.67,0,0,1-3.83-.88,2.71,2.71,0,0,1-1.36-2.39c0-1.38.86-2.39,2.59-2.77a2.59,2.59,0,0,1-1-.76,1.69,1.69,0,0,1-.37-1,2.4,2.4,0,0,1,.25-1,6,6,0,0,1,1.23-1,3.65,3.65,0,0,1-1.48-1.26,3.91,3.91,0,0,1-.49-2.14,3.86,3.86,0,0,1,1.36-3,5.46,5.46,0,0,1,3.7-1.13,4.18,4.18,0,0,1,1.11.13,4.17,4.17,0,0,0,1.11.13h4.2Zm-8.77,13.46a1,1,0,0,0,.49.88,2.63,2.63,0,0,0,1.48.25,6.13,6.13,0,0,0,2.35-.38,1.14,1.14,0,0,0,.86-1,0.56,0.56,0,0,0-.48-0.63h0a4.78,4.78,0,0,0-1.6-.25h-1.6a2.91,2.91,0,0,0-1.11.25,1.15,1.15,0,0,0-.38.88h0Zm1.24-9.56c0,1.26.37,1.89,1.24,1.89a0.82,0.82,0,0,0,.86-0.5,2,2,0,0,0,.37-1.38c0-1.26-.37-1.89-1.24-1.89s-1.23.63-1.23,1.88h0Zm16.79,8.05V122.3a3.38,3.38,0,0,0-.37-1.76,1.29,1.29,0,0,0-1.11-.63,1.39,1.39,0,0,0-1.48.88,7.08,7.08,0,0,0-.49,2.89V129H96.56V117h3.09l0.49,1.51h0.25a3.65,3.65,0,0,1,1.48-1.26,5.69,5.69,0,0,1,2.1-.38,4.06,4.06,0,0,1,3.09,1.13,4.55,4.55,0,0,1,1.11,3.27v7.8h-4.07v-0.25h0Zm16.92,0-1.85-4.91H113.1l-1.85,4.91h-1.73l6.05-15.47h1.48L123,128.84h-2Zm-2.35-6.54-1.73-4.78a23.81,23.81,0,0,1-.74-2.26c-0.12.63-.37,1.38-0.62,2.26l-1.73,4.78h4.81ZM134,128.84l-2.1-6.79c-0.12-.38-0.37-1.38-0.74-2.77h0a23.44,23.44,0,0,1-.74,2.89l-2.1,6.79h-2.1L123.1,117.4H125c0.74,2.89,1.24,5.16,1.73,6.67a18.33,18.33,0,0,1,.62,3h0.12a13.2,13.2,0,0,0,.37-1.51,10.53,10.53,0,0,1,.49-1.51l2.1-6.67h1.85l2,6.67a26.67,26.67,0,0,1,.74,3h0.12a6.44,6.44,0,0,1,.25-1.13c0.12-.5.86-3.4,2.1-8.55h1.73L136.07,129H134v-0.13h0Zm14.2,0-0.37-1.63h-0.12a4.66,4.66,0,0,1-1.73,1.51,5.24,5.24,0,0,1-2.1.38,3.44,3.44,0,0,1-2.59-.88,3.34,3.34,0,0,1-1-2.51c0-2.39,1.85-3.52,5.56-3.65l2-.13v-0.75a3,3,0,0,0-.62-2,2.53,2.53,0,0,0-1.85-.63,6.87,6.87,0,0,0-3.21.88L141.63,118c0.62-.25,1.11-0.5,1.85-0.76a10.7,10.7,0,0,1,2-.25,4,4,0,0,1,3,.88,4.07,4.07,0,0,1,1,2.89v7.93h-1.23v0.13h0Zm-3.83-1.26a3.15,3.15,0,0,0,2.47-.88,3.28,3.28,0,0,0,.87-2.52v-1l-1.73.13a5.81,5.81,0,0,0-3,.63,1.92,1.92,0,0,0-.87,1.76,1.63,1.63,0,0,0,.62,1.38,2.07,2.07,0,0,0,1.6.5h0ZM158.17,117a4.55,4.55,0,0,1,1.36.13l-0.25,1.63a4.55,4.55,0,0,0-1.24-.13,3,3,0,0,0-2.35,1.13,4.53,4.53,0,0,0-1,2.89v6.16H153V117.27h1.36l0.25,2.14h0.12a5.26,5.26,0,0,1,1.48-1.76,3.68,3.68,0,0,1,2-.63h0Zm11.24,10.32h0a4.43,4.43,0,0,1-3.7,1.76,4.27,4.27,0,0,1-3.46-1.51,8.46,8.46,0,0,1,0-8.8,4.5,4.5,0,0,1,7,.13h0.12l-0.12-.88v-5.66H171v16.48h-1.36Zm-3.46.25a3.31,3.31,0,0,0,2.59-1,5.35,5.35,0,0,0,.74-3.15v-0.38a5.46,5.46,0,0,0-.86-3.52,2.81,2.81,0,0,0-2.59-1,2.66,2.66,0,0,0-2.35,1.26,6.18,6.18,0,0,0-.86,3.4,6.28,6.28,0,0,0,.74,3.4,4,4,0,0,0,2.59,1h0Zm16-1.88a2.81,2.81,0,0,1-1.24,2.51,5.27,5.27,0,0,1-3.33.88,7.25,7.25,0,0,1-3.58-.76v-1.63a7,7,0,0,0,1.73.63,9.35,9.35,0,0,0,1.85.25,4.84,4.84,0,0,0,2.1-.38,1.45,1.45,0,0,0,.74-1.38,1.33,1.33,0,0,0-.62-1.13,6,6,0,0,0-2.22-1.13,10,10,0,0,1-2.22-1,2.54,2.54,0,0,1-1-1,2.57,2.57,0,0,1-.37-1.38A2.88,2.88,0,0,1,175,117.9,4.54,4.54,0,0,1,178,117a8.7,8.7,0,0,1,3.58.76L181,119.16a7.85,7.85,0,0,0-3.09-.75,3.41,3.41,0,0,0-1.85.38,1.33,1.33,0,0,0-.62,1.13,1.37,1.37,0,0,0,.25.76,2,2,0,0,0,.74.63,11,11,0,0,0,2,.88,7.51,7.51,0,0,1,2.72,1.51A2.7,2.7,0,0,1,182,125.7ZM104,64h0L71.5,32,104,0H71.5L39,32,55.23,48.2,71.5,64,87.77,79.85ZM129.71,48.2L113.44,32,97.17,16.18,81.26,32l32.18,32h0L80.9,96h32.54l16.27-15.83L146,64Z" transform="translate(0.02)"/></svg>