<svg xmlns="http://www.w3.org/2000/svg" width="350" height="348.25" viewBox="0 0 350 348.25">
  <defs>
    <style>
      .cls-1 {
        fill: #fff;
        fill-rule: evenodd;
      }
    </style>
  </defs>
  <path id="D_D_NYC" data-name="D&amp;D NYC" class="cls-1" d="M374.988,346.691a474.394,474.394,0,0,0-47.274-14.869l-0.46-.119-0.027-7.581,0.012,0L327.2,312.85c-72.387-23.621-186.3-21.48-244.442-2.117l0.081,19.024-0.458.122a474.735,474.735,0,0,0-47.168,15.208l-4.986,1.9L30,284.2l2.382-.91c8.247-3.149,16.946-6.18,25.867-9.013l-0.063-17.529,2.381-.908c75.665-28.889,198.62-31.573,287.915,1.789l2.388,0.892,0.062,17.366c9.109,2.811,18,5.835,26.443,8.988l2.387,0.892,0.226,62.788ZM58.411,319.54l-0.134-37.514c-7.413,2.389-14.255,4.767-20.879,7.255l0.168,47.043c12.285-4.534,25.014-8.635,37.861-12.2l-0.039-10.862c-4.56,1.6-8.389,3-11.99,4.37Zm285.1-55.884c-85.723-31.508-205.82-28.917-277.927-1.825l0.169,47.043c74.027-27.337,194.93-28.15,277.927,1.825ZM372.4,290.9c-6.81-2.5-13.837-4.884-21.444-7.268l0.134,37.678-5-1.868c-3.489-1.3-7.165-2.617-11.509-4.111l0.038,10.688c12.872,3.469,25.63,7.478,37.948,11.924ZM213.589,255.28c7.238,0.177,8.371,8.858,3.646,11.9l3.483,5.879-0.014.679-5.265-.11-3.044-5.451-2.448-.051-0.114,5.386-4.712-.1q0.194-9.137.387-18.3Zm-0.185,8.758c2.553,0.053,2.781-4.493.1-4.575-1.1-.049-2.263-0.047-3.369-0.07-0.031,1.49-.066,3.111-0.1,4.575Zm17.7-8.062-0.439,6.921,0.342,0.022c4.707,0.294,4.693-3.22,4.91-6.642l4.839,0.3c-0.238,3.735-.351,7.189-4.154,9.285l4.486,8.357-0.046.731-5.234-.327-3.6-7.332a10.744,10.744,0,0,1-1.822-.009l-0.442,6.973-4.786-.3,1.16-18.283Zm33.6,2.848c3.791,0.467,7.641,3.024,7.741,7.967l-4.6-.567a3.862,3.862,0,0,0-3.667-3.167c-2.745-.338-4.806,1.492-5.181,4.5-0.334,2.675,1.152,5.231,3.921,5.6a3.93,3.93,0,0,0,4.445-2.433l4.6,0.567c-1.322,5.058-5.68,6.578-9.576,6.1-4.657-.546-8.975-4.242-8.23-10.425C254.956,260.789,260.051,258.252,264.705,258.824Zm12.961,16.352,1.6-10-2.134-.337c0.248-1.551.4-2.507,0.646-4.032l8.874,1.4c-0.245,1.524-.4,2.481-0.647,4.031l-2.134-.337-1.6,10,2.316,0.366c-0.244,1.525-.4,2.481-0.65,4.058l-9.238-1.462c0.253-1.576.406-2.532,0.651-4.057Zm12.861-12.316,13.453,2.53c-0.26,1.361-.519,2.723-0.784,4.111l-4.424-.832-2.645,13.874-4.579-.861,2.645-13.874-4.45-.837C290.008,265.584,290.267,264.222,290.527,262.86Zm17.1,3.243,4.959,1.112,1.911,6.677,0.18,0.041,4.615-5.214,4.985,1.118-0.156.689-8.263,8.311-1.706,7.5-4.548-1.02,1.7-7.5-3.839-11.025Zm-126.707-1.415c-0.3-12.652,18.6-13.1,18.9-.447C200.129,276.92,181.229,277.368,180.924,264.688Zm4.844-.114a4.634,4.634,0,1,0,9.239-.219A4.634,4.634,0,1,0,185.768,264.574Zm-13.261,9.787-4.65.314L167.333,267l-6.85-9.473-0.048-.7,5.07-.342,3.753,5.855,0.183-.013,2.922-6.3,5.1-.344,0.048,0.7-5.525,10.307Zm-30.823,3.152-4.142-8.332-0.078.011-1.7,9.137-2.584.355-8.879-16.74-0.1-.7,4.724-.65,3.3,6.519,1.24,2.973,0.078-.011,1.708-10.062,1.983-.273,4.451,9.214,0.078-.01,0.379-3.2,1.368-7.162,4.645-.64,0.1,0.7-3.882,18.5Zm-33.571-13.182,11.306-2.148c0.257,1.336.524,2.724,0.792,4.111l-6.7,1.273L114,270.11l6.157-1.169q0.393,2.043.787,4.085l-6.157,1.17c0.2,1.053.4,2.081,0.608,3.16l6.934-1.317,0.786,4.085-11.538,2.192ZM92.62,277.4l2.134,8.744-4.735,1.14-4.361-17.87,1.664-.4,11.207,6.613L96.4,266.907l4.684-1.128,4.349,17.819-1.638.394ZM345.434,133.767l4.7-7.542-6.047,1.333c-0.24-1.09-.481-2.18-0.717-3.252l12.357-2.725,0.252,1.143-4.71,7.564,6.03-1.33q0.354,1.609.709,3.217l-12.322,2.717Zm5.948-16.887-6.666,2.026,0.465,1.533-2.7.822-1.858-6.116,2.7-.822,0.466,1.534,6.667-2.026-0.429-1.413,2.687-.816,1.785,5.874-2.687.817Zm-10.144-15.13-4.859,2.1-1.264-2.925,4.859-2.1,4.585-6.59,0.446-.193,1.378,3.189-2.943,3.763,0.05,0.116,4.757,0.435,1.385,3.206-0.446.193Zm-5.653-6.81-2.567,1.346-3.629-6.92,11.162-5.853c0.5,0.957,1,1.9,1.5,2.87l-8.595,4.507Zm-2.424-18.189-1.509.949,2.281,3.628-2.424,1.524-2.28-3.628L327.354,80.4l2.568,4.085L327.5,86.012l-4.274-6.8L333.9,72.505l4.187,6.662L335.643,80.7C334.647,79.114,334.148,78.322,333.161,76.752Zm-14.954-4.306-0.827-1.09,6.5-11.712,0.388-.294,1.871,2.467-3.9,6.661,0.055,0.072,7.42-2.013L331.594,69l-0.388.294Zm0.768-14.851-5.209,4.63,1.065,1.2L312.718,65.3l-4.247-4.778,2.113-1.878,1.065,1.2,5.208-4.63-0.981-1.1,2.1-1.866,4.079,4.589-2.1,1.866Zm-8.493-7.515c1.168-1.2-1.357-3.457-2.476-2.462-0.718.633-.185,1.428,0.539,2.309,1.6,1.939,3.094,3.918.9,6.174-3.692,3.791-11.1-3.3-7.185-7.224l2.231,2.173c-1.118,1.148,1.694,3.911,2.723,2.853,0.616-.632.006-1.5-0.846-2.433-1.822-2.051-2.458-3.977-.575-5.962,3.715-3.969,10.729,2.862,6.885,6.706Zm-17.4-3.66c-2-1.623-2.875-4.4-1.127-6.553l5.3-6.527,2.39,1.941-5.268,6.485a1.967,1.967,0,0,0,2.978,2.418l5.267-6.485,2.39,1.941-5.3,6.527C297.968,48.321,295.1,48.055,293.086,46.42Zm-4.717-7.572-1.631,2.4-6.457-4.4,7.092-10.414,2.678,1.824c-3.667,5.386-2.441,3.585-5.461,8.019Zm-9.946-12.477a2.644,2.644,0,0,0-1.5-2.961c-1.65-.921-3.427-0.285-4.445,1.538a3.267,3.267,0,0,0,1.032,4.576,2.683,2.683,0,0,0,3.444-.407l2.766,1.544c-2.146,2.884-5.3,2.732-7.64,1.425a6.206,6.206,0,0,1-2.51-8.761,6.231,6.231,0,0,1,8.783-2.477c2.279,1.272,4.054,3.891,2.837,7.067ZM263.9,20.3l1.225,7.314-0.2.444-3.093-1.371L261.253,22.1l-0.1-.044L257.346,24.7l-3.076-1.364,0.2-.444,6.226-4.01-1.12-6.441,0.2-.444,3.01,1.335,0.548,3.825,0.082,0.037,3.252-2.14,2.961,1.313-0.2.444Zm-13.347-8.58-0.583,1.684,4.049,1.4q-0.468,1.353-.937,2.705l-4.049-1.4-0.724,2.093,4.559,1.579-0.936,2.705-7.588-2.627c1.378-3.981,2.756-7.962,4.123-11.909l7.435,2.574c-0.307.885-.625,1.8-0.943,2.722Zm-21.4,4.233-4.653-.963,2.553-12.337,4.653,0.963C239.735,5.319,237.2,17.585,229.153,15.958Zm1.958-9.464-1.5-.31-1.364,6.591,1.5,0.31C233.677,13.9,235.041,7.307,231.111,6.494Zm-14.12-2.286-0.2,1.77,4.256,0.49q-0.163,1.422-.328,2.843l-4.256-.49c-0.084.733-.167,1.449-0.253,2.2L221,11.573c-0.108.93-.219,1.9-0.328,2.843L212.7,13.5l1.442-12.518,7.815,0.9c-0.107.93-.218,1.9-0.33,2.861ZM204.785,9.831l-2.321-.067-0.093,3.22-3.22-.093Q199.332,6.6,199.514.3l5.541,0.16C211.081,0.65,210.811,10,204.785,9.831Zm0.169-6.495c-0.755-.04-1.565-0.045-2.3-0.066-0.029,1.025-.074,2.573-0.1,3.6l2.3,0.066C206.613,6.985,206.824,3.408,204.954,3.336ZM321.1,157.445a120.928,120.928,0,0,1-25.726,74.7q-4.853-1-9.726-1.884a110.7,110.7,0,0,0,26.278-71.719c0-61.552-50.112-111.45-111.927-111.45a86.486,86.486,0,0,0-13.041,1.016c-1.635-5.075-6.217-6.773-8.349-10.617a123.018,123.018,0,0,1,20.473-1.739C266.471,35.75,321.1,90.235,321.1,157.445ZM182.279,7.521c-0.613-8.692,12.282-9.6,12.9-.909C195.788,15.322,182.893,16.232,182.279,7.521Zm3.305-.233a3.17,3.17,0,1,0,6.3-.445A3.168,3.168,0,1,0,185.584,7.288Zm-15.079-4.3,3.2-.519c1.043,6.43.695,4.28,1.554,9.573l4.511-.732c0.173,1.066.292,1.794,0.465,2.86l-7.709,1.252ZM174.037,69.3c-16.521,0,0-24.4,0-24.4S190.558,69.3,174.037,69.3ZM163.3,78.063a4.619,4.619,0,0,1,4.614-4.624H180.16a4.624,4.624,0,0,1,0,9.248H167.915A4.619,4.619,0,0,1,163.3,78.063Zm5.564,9.338c0-.008,0-0.015,0-0.023h10.343v29.8l-2.169,1.86-8.175,7.009V87.4Zm0,45.006,1.014-.87,9.33-8,0.964-.826c1.155,1.657,2.41,3.646,3.7,5.564v46.911l-5.837,6.851C171.105,171.386,168.865,132.407,168.865,132.407Zm30.452,90-1.739,0h0q-4.768.017-9.525,0.14c-3.1.073-6.193,0.185-9.285,0.317V188.617l1.454-1.706,1.829-2.147L212.265,149.3l2.41-2.829,1.052-1.235h4.837c0,0.332-.011.66-0.016,0.99q-0.034,2.155-.094,4.269-0.093,3.287-.249,6.471a242.411,242.411,0,0,1-2.626,26.313q-0.7,4.362-1.555,8.426-0.685,3.251-1.472,6.31c-0.05.2-.1,0.392-0.154,0.588a93.227,93.227,0,0,1-9.511,23.868C203.03,222.451,201.176,222.41,199.317,222.41Zm21.069-107.889-5.211,3.99a16.746,16.746,0,0,0-2.641-3.693l7.4-1.32A0.561,0.561,0,0,1,220.386,114.521Zm-5.289-9.569-3.82,8.666a16.6,16.6,0,0,0-4.972-2.957l7.907-6.389A0.561,0.561,0,0,1,215.1,104.952ZM188.69,139.787l13.331,14.1L188.69,169.53V139.787Zm-1.453-35.516,7.75,6.262a16.618,16.618,0,0,0-4.952,2.772l-3.683-8.353A0.561,0.561,0,0,1,187.237,104.271Zm-1.324,13.964-0.589-.452-4.261-3.262a0.561,0.561,0,0,1,.449-1.023l6.966,1.242a16.764,16.764,0,0,0-2.489,3.358Zm11.823-8.41a0.834,0.834,0,0,1,.008-0.351l2.408-10a0.56,0.56,0,0,1,1.116,0l2.436,10a0.83,0.83,0,0,1-.015.449A16.6,16.6,0,0,0,197.736,109.825Zm14.529,16.427v15.61l-6.582,7.725L188.69,132.244V125.7c0.016-.34.048-0.677,0.091-1.009a11.765,11.765,0,0,1,.551-2.329,11.616,11.616,0,0,1,.62-1.459c0.128-.253.263-0.5,0.408-0.745,0.12-.2.246-0.393,0.377-0.584A11.788,11.788,0,0,1,212.265,126.252Zm-1.881,96.289a102.8,102.8,0,0,0,8.992-23.937q0.3-1.188.59-2.415,0.279-1.19.547-2.416c0.015-.069.031-0.137,0.045-0.206q0.676-3.115,1.271-6.478,0.332-1.864.633-3.809,0.168-1.08.329-2.184,0.063-.43.123-0.866l0.066,0.569,0.29,2.481,0.152,1.312,0.442,3.792,0.628,5.389,0.281,2.415,0.282,2.416,2.875,24.682c-2.915-.174-5.832-0.332-8.754-0.452S213.318,222.608,210.384,222.541Zm14.656-65.729q0.135-2.849.223-5.819l10.363,10.477a9.9,9.9,0,0,0-1.447,1.772l-7.095,11.123Zm44.684,24.5a6.1,6.1,0,0,1-6.1,6.111H256.1l7.791-12.215A6.1,6.1,0,0,1,269.724,181.31ZM248,191.148a5.677,5.677,0,0,1-4.783,2.625H229.345l-1.222-10.492-0.155-1.331,10.272-16.1a5.009,5.009,0,0,1,4.213-2.312h19.073a2.244,2.244,0,0,1,1.886,3.453l-5.238,8.213-7.8,12.222ZM88.073,158.54a110.7,110.7,0,0,0,26.09,71.5q-5.667,1.024-11.308,2.182A121.541,121.541,0,0,1,168.868,39.517c-2.656,5.043-7.874,8.34-8.815,14.2C116.979,69.224,88.073,110.3,88.073,158.54ZM157.986,5.793l7.648-1.847c0.22,0.91.448,1.855,0.676,2.8l-4.533,1.095L162.2,9.573l4.165-1.006,0.672,2.783-4.165,1.006c0.173,0.718.342,1.418,0.52,2.153l4.69-1.133,0.672,2.783-7.806,1.885C159.955,13.949,158.966,9.853,157.986,5.793Zm-6.358,15.278-9.019-9.911-0.154-.461,2.937-.984,5.066,5.823,0.085-.029,0.466-7.677,2.937-.984L154.1,7.309l-1.175,13.327Zm-13.06,1.851L142.992,21l1.138,2.625-7.363,3.192c-1.675-3.863-3.35-7.727-5.01-11.557l7.215-3.127c0.372,0.858.759,1.75,1.145,2.642l-4.276,1.853,0.708,1.634,3.93-1.7q0.569,1.313,1.138,2.625l-3.93,1.7Zm-10.416,8.3-4.173,2.272-6.024-11.066,4.173-2.272C129.354,16.261,135.343,27.264,128.152,31.22Zm-4.621-8.489-1.344.732,3.219,5.912,1.343-.732C130.275,26.724,127.056,20.811,123.531,22.731ZM111.89,41.815c-4.155,3.037-8.085-.509-6.933-4.026-2.646-.54-3.952-4.155-0.756-6.491,1.772-1.3,3.862-1.486,5.134.437l-2.295,1.678c-0.266-.363-0.7-0.379-1.267.035a0.96,0.96,0,1,0,1.154,1.519l0.436-.319,1.551,2.121-0.465.34a1.558,1.558,0,1,0,1.837,2.513,1.539,1.539,0,0,0,.377-2.259l-2.475-3.385,3.167-2.315L113,33.914l-0.9.658,0.828,1.133C114.586,37.972,114.1,40.2,111.89,41.815ZM93.161,57.689l-8.716-9.1L87.877,45.3c5.953-5.652,14.619,3.4,8.716,9.1ZM89.906,47.421L88.8,48.479l4.657,4.862,1.105-1.058C97.462,49.507,92.806,44.644,89.906,47.421Zm-5.712,8.27,2.154,1.883L83.53,60.8,85.2,62.255l3.173-3.631,2.154,1.883-5.281,6.043-9.485-8.289,5.175-5.921L83.1,54.234l-3.067,3.509,1.341,1.172ZM81.856,70.8L73.1,72.3l5.013,3.638-1.956,2.7L65.908,71.2,66.6,70.25l8.785-1.5-5-3.627,1.935-2.667,10.215,7.413ZM65.283,80.4a2.578,2.578,0,0,0-2.626,1.514c-1.021,1.759-.2,3.5,1.463,4.47,1.805,1.048,3.6.676,4.56-.974a2.562,2.562,0,0,0,.016-3.111l-1.346,2.319-2.412-1.4,2.99-5.152a9.163,9.163,0,0,1,3.01,2.163,5.563,5.563,0,0,1,.326,6.681A6.451,6.451,0,1,1,60.1,80.427c1.289-2.185,3.753-3.814,6.769-2.771ZM63.638,94.84l0.691-1.445,2.549,1.219-2.757,5.764-2.549-1.22,0.691-1.445L55.98,94.708l-0.637,1.331L52.81,94.827l2.648-5.536L57.992,90.5l-0.637,1.331Zm-8.806,4.887-1.121,2.848c-1.558-.613-2.663,2.589-1.312,3.237,0.862,0.416,1.389-.382,1.921-1.392,1.168-2.23,2.416-4.37,5.348-3.216,4.926,1.938,1.252,11.521-3.882,9.423l1.14-2.9c1.491,0.586,2.951-3.076,1.578-3.617-0.821-.323-1.388.577-1.916,1.723-1.186,2.474-2.717,3.807-5.276,2.838C46.213,106.783,49.8,97.669,54.832,99.727Zm-7.1,16.966,1.707,0.512,1.231-4.1,2.742,0.823-1.231,4.1,2.121,0.636,1.386-4.621,2.742,0.822-2.307,7.69-12.07-3.621,2.261-7.534,2.759,0.827Zm6.2,15.293-0.959,4.653L40.635,134.1l0.959-4.653C43.285,121.415,55.551,123.942,53.93,131.986Zm-9.464-1.95-0.309,1.5,6.591,1.358,0.309-1.5C51.867,127.464,45.276,126.106,44.466,130.036Zm120.586,193.12H160.3v1.81h4.365v2.908H160.3v2.25h4.915v2.908h-8.179v-12.8h8.014v2.927Zm10.386,6.108c0-.9-1.063-1.1-2.347-1.17-2.788-.2-4.621-1.152-4.658-3.933-0.11-5.523,9.866-5.523,9.793,0h-3.118c0-1.7-3.448-1.554-3.558-.036-0.073.969,0.881,1.17,2.036,1.3,2.549,0.275,5.043.659,5.043,3.86,0,5.377-10.453,5.468-10.379-.165h3.172C171.422,330.746,175.438,330.764,175.438,329.264Zm14.972-6.108h-3.136v9.876h-3.246v-9.876h-3.155v-2.927h9.537v2.927Zm12.461-.2a1.126,1.126,0,0,0-1.266,1.244h-2.787a3.883,3.883,0,0,1,4.108-4.17c3.686-.092,5.3,3.548,3.392,6.493l-2.585,3.585h3.814v2.926h-9.022v-0.494l4.823-7.041C203.99,324.637,204.485,322.954,202.871,322.954Zm12.549-2.963c2.659,0,4.823,1.61,4.823,4.408v4.481c0,2.8-2.164,4.408-4.823,4.408-2.6,0-4.786-1.609-4.786-4.408V324.4C210.634,321.6,212.816,319.991,215.42,319.991Zm-1.668,8.816a1.514,1.514,0,0,0,1.668,1.573,1.541,1.541,0,0,0,1.724-1.573v-4.353a1.533,1.533,0,0,0-1.724-1.536,1.505,1.505,0,0,0-1.668,1.536v4.353Zm11.358-5.926h-1.742v-2.652H228.3v10.133h1.944v2.67H223.2v-2.67h1.907v-7.481Zm9.67,0h-1.742v-2.652h4.933v10.133h1.944v2.67h-7.042v-2.67h1.907v-7.481Z" transform="translate(-30 -0.313)"/>
</svg>
