<svg id="Layer_1" data-name="Layer 1" xmlns="http://www.w3.org/2000/svg" viewBox="0 0 179.79 52.97"><defs><style>.cls-1{fill:#333c45;}</style></defs><title>fwa</title><path class="cls-1" d="M153.43,7.92a3.92,3.92,0,0,1,1.86.47,3.87,3.87,0,0,1,2,3.41h0v11h10.75a3.87,3.87,0,1,1,0,7.75H157.34V41a3.89,3.89,0,0,1-3.91,3.87H123.49A3.89,3.89,0,0,1,119.59,41h0V26.5h0a3.89,3.89,0,0,1,3.9-3.7h26V15.67h-30L105.22,41.89a3.87,3.87,0,0,1-2.14,2.76A3.92,3.92,0,0,1,98,43.11a3.85,3.85,0,0,1-.36-0.69L86.39,20.51,75,41.93a5,5,0,0,1-2.37,2.72,3.93,3.93,0,0,1-5.07-1.54,3.87,3.87,0,0,1-.37-0.69L53.45,15.67h-23V22.8H49a3.87,3.87,0,1,1,0,7.75H30.47V41.2a3.91,3.91,0,0,1-7.82,0V30.55H11.91a3.87,3.87,0,0,1,0-7.75H22.66v-11h0a3.87,3.87,0,0,1,2-3.41,3.92,3.92,0,0,1,1.86-.47H55.71A4.27,4.27,0,0,1,59.4,10.2L70.93,32.62,82.49,11.21c0.58-1.17.9-2.23,2.15-2.82A3.93,3.93,0,0,1,89,9a4.71,4.71,0,0,1,1.53,1.86l10.89,21.75,12.23-22.48a3.86,3.86,0,0,1,1.26-1.32,3.92,3.92,0,0,1,2.5-.89h36.07M127.23,37.11h22.3V30.55h-22.3v6.56M153.43,0H117.36a12.77,12.77,0,0,0-10.7,6.22l0,0.08,0,0.08-5,9.17S95.79,4.32,94.11,2.95a12,12,0,0,0-12.93-1.7c-3.1,1.48-4.82,4.19-6.28,7.38l-3.77,6.93L66.56,6.66A11.87,11.87,0,0,0,60.9,1.18,12.05,12.05,0,0,0,55.71,0H26.57a12,12,0,0,0-5.68,1.43A11.78,11.78,0,0,0,14.66,11.8v3.08H11.91a11.8,11.8,0,0,0,0,23.6h2.75v2.73a11.91,11.91,0,0,0,23.81,0V38.48H49a11.91,11.91,0,0,0,6.24-1.76l4.66,9.07a11.67,11.67,0,0,0,.81,1.5,12,12,0,0,0,15.33,4.5,13.6,13.6,0,0,0,6.71-6.71l3.39-7.49,4.22,8.2a11.69,11.69,0,0,0,.81,1.5,11.93,11.93,0,0,0,21.26-1.84,11.92,11.92,0,0,0,11,7.34h29.94a11.69,11.69,0,0,0,11.9-11.46s0-.08,0-0.12V38.47h2.75a11.8,11.8,0,1,0,0-23.6h-2.75V11.8a11.78,11.78,0,0,0-6.23-10.37A12,12,0,0,0,153.43,0h0Z" transform="translate(-0.11)"/></svg>