<svg xmlns="http://www.w3.org/2000/svg" viewBox="0 0 150 150"><defs><style>.a{fill:#333c45;}</style></defs><title>-icons</title><path class="a" d="M57.58,63.41A1.93,1.93,0,0,0,56,64.1c-0.35.47-.57,1-0.57,3.88s0.22,3.39.57,3.85a2,2,0,0,0,3.08,0c0.35-.47.57-1,0.57-3.85s-0.22-3.41-.57-3.88A1.93,1.93,0,0,0,57.58,63.41ZM84.26,26.57H47.64a5.4,5.4,0,0,0-5.47,5.32V98.76a5.4,5.4,0,0,0,5.47,5.32h54.71c3,0,5.47-3.75,5.47-6.68V46.59ZM62,74.22a6.31,6.31,0,0,1-8.77,0c-1.65-1.66-1.59-3.88-1.59-6.25s-0.07-4.58,1.59-6.25a6.31,6.31,0,0,1,8.77,0c1.65,1.66,1.59,3.88,1.59,6.25S63.62,72.56,62,74.22ZM81,75.86H77.67l-5-7.93v7.93H68.79V60.09h3.37l5,7.93V60.09H81V75.86ZM97.1,63.54H90.29v2.64h5.82v3.46H90.29V72.4H97.1v3.46H86.44V60.09H97.1v3.46Zm-6.86-15.6c-3.61,0-6.53-2.39-6.53-5.35v-12l20.1,17.38H90.24Z"/><path class="a" d="M5.34,126.33H0v13.44H3.31V135h2A4.33,4.33,0,1,0,5.34,126.33ZM5.18,132H3.31V129.3H5.18A1.36,1.36,0,1,1,5.18,132Zm12.34-5.68-4.9,13.44h3.46l0.66-2h4.14l0.62,2H25l-4.9-13.44H17.52ZM17.67,135l1.21-3.59L20,135H17.67Zm16.44-8.68H28.78v13.44h3.31V135h2A4.33,4.33,0,1,0,34.11,126.33ZM34,132H32.09V129.3H34A1.36,1.36,0,1,1,34,132Zm9.58,7.76H52.7v-2.95H46.85v-2.36h5v-2.95h-5v-2.25H52.7v-2.95H43.54v13.44ZM68,130.66a4.3,4.3,0,0,0-4.6-4.32H58.06v13.44h3.31v-5h1.12l2.38,5h3.84l-2.91-5.61A3.87,3.87,0,0,0,68,130.66ZM63.25,132H61.38V129.3h1.87A1.36,1.36,0,1,1,63.25,132ZM84,126.33H80.65v13.44h9v-2.95H84v-10.5Zm14.7,0-4.9,13.44h3.46l0.66-2H102l0.62,2h3.46l-4.9-13.44H98.66ZM98.81,135l1.21-3.59,1.14,3.59H98.81Zm19.06-1.93-4.31-6.76h-2.9v13.44H114V133l4.31,6.76h2.9V126.33h-3.31v6.76Zm9,6.68H136v-2.95h-5.85v-2.36h5v-2.95h-5v-2.25H136v-2.95h-9.16v13.44ZM141,127.32h1.32v4.17h1v-4.17h1.32v-0.88H141v0.88Zm8-.88-1.31,2.73-1.32-2.73h-1v5.06h1v-2.95l1,1.92H148l1-1.92v2.95h1v-5.06h-1Z"/></svg>