<svg xmlns="http://www.w3.org/2000/svg" viewBox="0 0 150 150"><defs><style>.a{fill:#333c45;}</style></defs><title>-icons</title><path class="a" d="M74.57,28.89a0.7,0.7,0,1,1-.95-0.25,0.69,0.69,0,0,1,.95.25"/><path class="a" d="M77.57,28.89a0.71,0.71,0,0,0,.25,1,0.7,0.7,0,0,0,.7-1.2,0.7,0.7,0,0,0-1,.25"/><rect class="a" x="74.72" y="29.41" width="0.4" height="2.97" transform="translate(-5.39 41.75) rotate(-30.11)"/><rect class="a" x="75.73" y="30.7" width="2.97" height="0.4" transform="translate(11.78 82.23) rotate(-59.92)"/><rect class="a" x="75.87" y="29.03" width="0.4" height="2.97"/><path class="a" d="M76.76,28.6a0.7,0.7,0,1,1-.7-0.69,0.69,0.69,0,0,1,.7.69"/><path class="a" d="M92.71,38.35c-1.51-.5-6.88-1.16-10,0.26a8.5,8.5,0,0,0-4.67-3,6,6,0,0,0,.48-1.75,2.48,2.48,0,0,0-5,0,6,6,0,0,0,.48,1.75,8.48,8.48,0,0,0-4.66,3c-3.1-1.42-8.47-.76-10-0.26a1,1,0,0,0-.66.49,1.84,1.84,0,0,0,.67.55c0.67,0.47,5.82,4.3,8.52,13.53a0.51,0.51,0,0,0,.61.45h15a0.51,0.51,0,0,0,.61-0.45C86.89,43.69,92,39.86,92.7,39.39a1.86,1.86,0,0,0,.67-0.55A1,1,0,0,0,92.71,38.35ZM76.07,32.63a1.24,1.24,0,0,1,1.24,1.24,5.2,5.2,0,0,1-.23,1.57c0,0.13-.08.27-0.12,0.39a0.89,0.89,0,0,1-1.77,0c0-.12-0.08-0.26-0.12-0.39a5.12,5.12,0,0,1-.23-1.57A1.23,1.23,0,0,1,76.07,32.63ZM70,52.13C67.74,44.79,62.31,40.59,60.43,39c3-.57,6.61-0.25,9,2.07a1,1,0,0,0,.42.33A0.64,0.64,0,0,0,70.08,41c1-2.31,2.26-4.11,4.18-4.87,0.38,0.94.84,1.86,1.09,2.37-0.7,1.33-3.49,6.74-3.49,8.66a6.08,6.08,0,0,0,2.49,5H70Zm3.17-5c0-1.16,1.6-4.67,2.95-7.3h0C77.41,42.47,79,46,79,47.14A3,3,0,1,1,73.12,47.14Zm9.06,5H77.77a6.08,6.08,0,0,0,2.49-5c0-1.91-2.79-7.32-3.49-8.66,0.25-.51.71-1.43,1.09-2.37C79.79,36.88,81,38.68,82,41a0.64,0.64,0,0,0,.28.39A1,1,0,0,0,82.74,41c2.36-2.31,5.94-2.63,9-2.07C89.82,40.59,84.4,44.79,82.18,52.13Z"/><path class="a" d="M31.57,106.25H26.49l0-.41,0.37-.05c0.26,0,.35-0.08.35-0.2v-5.12c0-.09-0.05-0.14-0.39-0.19l-0.33-.05,0-.41H29.4l0,0.41-0.41.05c-0.29,0-.36.09-0.36,0.2v5.3h0.17c1.6,0,1.78-.09,2-0.8l0.26-.84h0.73Z"/><path class="a" d="M33.63,106.25l0-.4,0.42-.09a0.18,0.18,0,0,0,.17-0.18v-3.45a0.18,0.18,0,0,0-.17-0.17l-0.42-.09,0-.4h2.45l0,0.4-0.42.09a0.18,0.18,0,0,0-.17.17v3.45a0.18,0.18,0,0,0,.17.18l0.42,0.09,0,0.4H33.63Z"/><path class="a" d="M42.51,107.64a2.28,2.28,0,0,1-2.21-1.26A2.36,2.36,0,0,1,38,103.91a2.59,2.59,0,0,1,2.68-2.57,2.4,2.4,0,0,1,2.61,2.49,2.5,2.5,0,0,1-1.69,2.39,2.06,2.06,0,0,0,2.11.86l0,0.38A5.12,5.12,0,0,1,42.51,107.64Zm-1.88-5.84c-0.73,0-1.29.63-1.29,2s0.6,2.12,1.36,2.12,1.3-.63,1.3-2S41.4,101.81,40.63,101.81Z"/><path class="a" d="M50.42,101.82l-0.36.09c-0.15,0-.3.12-0.3,1.52v1.13a1.78,1.78,0,0,1-2,1.87,1.75,1.75,0,0,1-2-1.78v-2.52a0.19,0.19,0,0,0-.17-0.17l-0.34-.09,0-.4h2.29l0,0.4-0.35.09a0.19,0.19,0,0,0-.17.17v2.26c0,1,.44,1.44,1.2,1.44a1.17,1.17,0,0,0,1.22-1.41v-1c0-1.22-.06-1.42-0.29-1.47l-0.4-.08,0-.4h1.84Z"/><path class="a" d="M56.67,106.25H52.2l0-.4,0.34-.09a0.19,0.19,0,0,0,.17-0.18v-3.45a0.19,0.19,0,0,0-.17-0.17l-0.34-.09,0-.4h4.52v1.64H56.09l-0.15-.59c-0.14-.56-0.43-0.64-1.52-0.64H54v1.79h0.23a0.6,0.6,0,0,0,.66-0.27l0.2-.53H55.5l-0.18,1.92H54.86l-0.08-.48c0-.21-0.14-0.28-0.63-0.28H54v1.82h0.47c1.09,0,1.4-.09,1.56-0.64l0.15-.57h0.68Z"/><path class="a" d="M64.08,101.82l-0.36.09c-0.15,0-.3.12-0.3,1.52v1.13a1.78,1.78,0,0,1-2,1.87,1.75,1.75,0,0,1-2-1.78v-2.52a0.19,0.19,0,0,0-.17-0.17l-0.34-.09,0-.4h2.29l0,0.4-0.35.09a0.19,0.19,0,0,0-.17.17v2.26c0,1,.44,1.44,1.2,1.44A1.17,1.17,0,0,0,63,104.42v-1c0-1.22-.06-1.42-0.29-1.47l-0.4-.08,0-.4h1.84Z"/><path class="a" d="M69.32,106.25L69,105.63l-0.81-1.36H67.6v1.33a0.19,0.19,0,0,0,.17.18l0.35,0.09,0,0.4H65.85l0-.4,0.35-.09a0.18,0.18,0,0,0,.17-0.18v-3.45a0.18,0.18,0,0,0-.17-0.17l-0.35-.09,0-.4h2.63c1.36,0,2,.56,2,1.24a1.44,1.44,0,0,1-1.16,1.38l1,1.39a0.67,0.67,0,0,0,.4.32l0.22,0.06,0,0.4H69.32ZM68,101.87H67.6v2l0.64,0.06a1,1,0,0,0,.91-1A1,1,0,0,0,68,101.87Z"/><path class="a" d="M78,106.37a1.09,1.09,0,0,1-.72-0.5,6.83,6.83,0,0,1,.38-1.06H77.58c-0.57.84-.88,1.55-1.47,1.55a0.94,0.94,0,0,1-.95-1.06,3,3,0,0,1,.93-2,1.6,1.6,0,0,1,1-.5,0.63,0.63,0,0,1,.66.61h0.07l0.26-1.12A0.26,0.26,0,0,0,78,102l-0.38-.18,0.06-.23,1.78-.4-0.9,3.45-0.26,1.12,0.19,0.07,0.5-.31,0.13,0.17A1.42,1.42,0,0,1,78,106.37Zm-1-3a0.3,0.3,0,0,0-.24.11A2.32,2.32,0,0,0,76.2,105a0.5,0.5,0,0,0,.36.6,2.11,2.11,0,0,0,1-1.05l0.23-.64A1.14,1.14,0,0,0,77,103.37Z"/><path class="a" d="M81.32,105.07a0.64,0.64,0,0,0,.64.65,4,4,0,0,0,1-.54l0.14,0.18a2,2,0,0,1-1.56,1,1.18,1.18,0,0,1-1.28-1.31,2.31,2.31,0,0,1,2.14-2.25,0.84,0.84,0,0,1,1,.76c0,0.51-.72.76-2.08,1.5v0Zm0-.31c0.68-.41,1.15-0.68,1.15-1.12a0.5,0.5,0,0,0-.5-0.36,0.23,0.23,0,0,0-.19.07,2.78,2.78,0,0,0-.5,1.41h0Z"/><path class="a" d="M91.38,101.95l-0.22-.85c-0.22-.75-0.45-0.8-2.08-0.8H88.76v2.6h0.31c0.58,0,.83,0,0.94-0.33l0.25-.7h0.54l-0.24,2.49H90l-0.1-.66c0-.26-0.15-0.34-0.9-0.34H88.76v2.27c0,0.09.07,0.15,0.38,0.18l0.55,0,0,0.41H86.65l0-.41,0.37,0c0.26,0,.35-0.08.35-0.2v-5.14c0-.09-0.05-0.14-0.39-0.18l-0.33,0,0-.41h5.43v2.12h-0.7Z"/><path class="a" d="M96.95,106.25l-0.35-.63-0.81-1.36H95.23v1.33a0.19,0.19,0,0,0,.17.18l0.35,0.09,0,0.4H93.48l0-.4,0.35-.09a0.18,0.18,0,0,0,.16-0.18v-3.45a0.18,0.18,0,0,0-.16-0.17l-0.35-.09,0-.4h2.63c1.36,0,2,.56,2,1.24a1.44,1.44,0,0,1-1.16,1.38l1,1.39a0.67,0.67,0,0,0,.4.32l0.22,0.06,0,0.4H96.95Zm-1.3-4.39H95.23v2l0.64,0.06a1,1,0,0,0,.91-1A1,1,0,0,0,95.64,101.87Z"/><path class="a" d="M102.67,106.25l0-.4,0.24,0c0.32-.06.37-0.11,0.15-0.75l-0.11-.33h-1.71l-0.08.24c-0.21.61-.15,0.76,0.17,0.83l0.22,0.05,0,0.4H99.74l0-.4,0.17,0c0.36-.08.48-0.15,1-1.42l0.94-2.54v-0.25l1.2-.27,1.45,4.16a0.47,0.47,0,0,0,.41.3l0.23,0.05,0,0.4h-2.47Zm-0.49-3.89h-0.1l-0.69,2h1.45Z"/><path class="a" d="M112.1,101.87l-0.34.08c-0.22.05-.3,0.23-0.3,1.47v2.89h-1.09l-2.6-3.67h-0.13v1.66c0,1.22.08,1.42,0.3,1.47l0.39,0.08,0,0.4h-1.82l0-.4,0.33-.08c0.23-.06.3-0.22,0.3-1.47v-2A0.34,0.34,0,0,0,107,102l-0.33-.1,0-.4h1.77L110.9,105H111v-1.57c0-1.22-.07-1.42-0.3-1.47l-0.39-.08,0-.4h1.81Z"/><path class="a" d="M118.56,106.25l-0.59-.11a3.8,3.8,0,0,1-1.34.26c-1.62,0-2.75-.86-2.75-2.47a2.56,2.56,0,0,1,2.78-2.59,4,4,0,0,1,1.22.2l0.77-.18v1.79H118L117.62,102a1.65,1.65,0,0,0-.83-0.22c-1,0-1.58.81-1.58,2s0.58,2.16,1.55,2.16a1.91,1.91,0,0,0,.79-0.16l0.45-1.17h0.7Z"/><path class="a" d="M125.33,106.25h-4.47l0-.4,0.34-.09a0.19,0.19,0,0,0,.17-0.18v-3.45a0.19,0.19,0,0,0-.17-0.17l-0.34-.09,0-.4h4.52v1.64h-0.63l-0.15-.59c-0.14-.56-0.43-0.64-1.52-0.64h-0.46v1.79h0.23a0.6,0.6,0,0,0,.66-0.27l0.2-.53h0.46L124,104.79h-0.45l-0.08-.48c0-.21-0.14-0.28-0.63-0.28h-0.2v1.82h0.47c1.09,0,1.4-.09,1.56-0.64l0.15-.57h0.68Z"/><polygon class="a" points="4.21 88.63 4.21 65.29 2.49 65.29 2.49 90.36 9.36 90.36 9.36 88.63 4.21 88.63"/><path class="a" d="M21.69,73.48c0-2-1.27-3-3.43-3.07H10.2V72.1h6.54c2.69,0,3.46.81,3.26,3.21a7.17,7.17,0,0,1-.13,1A2.93,2.93,0,0,0,21.69,73.48Z"/><path class="a" d="M18.82,82.54H11v1.73H16.4a6.6,6.6,0,0,0,5.18-2.11A9.8,9.8,0,0,1,18.82,82.54Z"/><polygon class="a" points="45.23 71.37 44.31 73.29 46.99 78.8 48.84 78.8 45.23 71.37"/><polygon class="a" points="28.96 88.72 40.3 65.29 38.38 65.29 26.19 90.42 36.3 90.42 36.3 88.72 28.96 88.72"/><polygon class="a" points="53.65 88.74 51.79 84.92 38.77 84.92 37.91 86.64 50.76 86.64 52.62 90.44 59.89 90.44 59.89 88.74 53.65 88.74"/><polygon class="a" points="103.72 71.34 102.8 73.25 105.48 78.77 107.33 78.77 103.72 71.34"/><polygon class="a" points="87.44 88.69 98.78 65.25 96.87 65.25 84.67 90.39 94.78 90.39 94.78 88.69 87.44 88.69"/><polygon class="a" points="112.14 88.71 110.28 84.89 97.25 84.89 96.39 86.61 109.25 86.61 111.11 90.41 118.38 90.41 118.38 88.71 112.14 88.71"/><polygon class="a" points="71.03 88.64 59.87 65.27 57.96 65.27 69.93 90.36 75.91 90.36 76.73 88.64 71.03 88.64"/><polygon class="a" points="73.19 81.6 81 65.26 79.1 65.26 72.61 78.86 73.19 81.6"/><polygon class="a" points="124.42 88.7 124.42 65.44 122.68 65.44 122.69 90.42 129.77 90.42 129.76 88.7 124.42 88.7"/><polygon class="a" points="142.91 78.68 142.91 65.44 141.18 65.44 141.18 76.85 142.91 78.68"/><polygon class="a" points="143.99 88.67 130.98 74.41 130.94 76.91 143.22 90.41 148.85 90.41 148.85 88.67 143.99 88.67"/><path class="a" d="M11.37,87.1H5.74V63.51H20.17a8.49,8.49,0,0,1,8.67,8.88c0,5.23-3.57,8.89-8.67,8.89H11.37V87.1h0Zm0-11.45h8.81a3.06,3.06,0,0,0,3-3.26,3.2,3.2,0,0,0-3-3.26H11.37v6.52h0Z"/><path class="a" d="M61.05,87.2H54.61l-1.8-3.73H39.56L37.72,87.2H31.37L42.8,63.61h6.68L61.05,87.2h0ZM42.31,77.85H50.1l-3.91-8-3.88,8h0Z"/><path class="a" d="M119.54,87.17H113.1l-1.8-3.73H98l-1.83,3.73H89.86l11.43-23.59H108l11.57,23.59h0Zm-18.75-9.35h7.79l-3.91-8-3.88,8h0Z"/><path class="a" d="M78.48,87.16H72L60.85,63.57h6.26L75.23,80.8l8.28-17.23h6.31L78.48,87.16h0Z"/><path class="a" d="M150,87.18h-5.31L131.59,72.77V87.18H126V63.59h5.32L144.38,78V63.59H150V87.18h0Z"/></svg>