<svg xmlns="http://www.w3.org/2000/svg" viewBox="0 0 191.25 68.24"><defs><style>.a{fill:#333c45;}</style></defs><title>tia</title><path class="a" d="M10,68.25v-10H0v-58H58v58Zm1.58-28.77a0.55,0.55,0,0,0,.54.54h2.62a0.55,0.55,0,0,0,.54-0.54V23.68h4.31a0.53,0.53,0,0,0,.54-0.54h0V20.84a0.54,0.54,0,0,0-.53-0.54H7.28a0.53,0.53,0,0,0-.54.54h0v2.31a0.54,0.54,0,0,0,.53.54h4.31V39.48h0Zm12.58,0a0.55,0.55,0,0,0,.54.54h2.62a0.55,0.55,0,0,0,.54-0.54V20.84a0.55,0.55,0,0,0-.54-0.54H24.7a0.55,0.55,0,0,0-.54.54V39.47h0ZM32,40h2.45a0.85,0.85,0,0,0,.82-0.56l1.38-3h8.42l1.38,3a0.81,0.81,0,0,0,.82.56h2.45a0.5,0.5,0,0,0,.48-0.73L41.53,20.33A0.48,0.48,0,0,0,41.05,20H40.77a0.5,0.5,0,0,0-.48.31L31.54,39.28A0.5,0.5,0,0,0,32,40h0Zm6-6.73,2.76-6.19h0.08l2.82,6.19H38ZM73.42,14.52a0.41,0.41,0,0,0,.4.4h2a0.41,0.41,0,0,0,.4-0.4V2.74h3.21a0.4,0.4,0,0,0,.4-0.4V0.62a0.4,0.4,0,0,0-.4-0.4H70.21a0.4,0.4,0,0,0-.4.4V2.34a0.4,0.4,0,0,0,.4.4h3.21V14.52h0Zm6.51-6.93a7.49,7.49,0,1,0,0-.13s0,0.09,0,.13h0Zm2.73,0a4.82,4.82,0,1,1,4.83,4.81h0a4.86,4.86,0,0,1-4.81-4.81h0Zm14.28,6.93a0.4,0.4,0,0,0,.4.4h1.93a0.41,0.41,0,0,0,.4-0.4V9.59h2.63a4.68,4.68,0,1,0,0-9.36H97.34a0.4,0.4,0,0,0-.4.4v13.9h0ZM99.67,7V2.8h2.44a2.1,2.1,0,0,1,2.16,2h0A2.16,2.16,0,0,1,102.13,7H99.67ZM71.45,35.35a0.41,0.41,0,0,0,.4.4h2a0.41,0.41,0,0,0,.4-0.4V21.45a0.41,0.41,0,0,0-.4-0.4h-2a0.41,0.41,0,0,0-.4.4v13.9h0Zm5.73,0a0.41,0.41,0,0,0,.4.4h1.91a0.4,0.4,0,0,0,.4-0.4v-9h0L88.69,36h0.5a0.4,0.4,0,0,0,.4-0.38V21.45a0.41,0.41,0,0,0-.4-0.4H87.26a0.4,0.4,0,0,0-.4.4v8.67h0L78.1,20.85H77.58a0.39,0.39,0,0,0-.4.38V35.35h0Zm17.37,0a0.41,0.41,0,0,0,.4.4h2a0.41,0.41,0,0,0,.4-0.4V23.58h3.21a0.4,0.4,0,0,0,.4-0.4V21.45a0.4,0.4,0,0,0-.4-0.4H91.34a0.4,0.4,0,0,0-.4.4v1.72a0.4,0.4,0,0,0,.4.4h3.21V35.35h0Zm7.71,0a0.4,0.4,0,0,0,.4.4h8.55a0.4,0.4,0,0,0,.4-0.4V33.63a0.4,0.4,0,0,0-.4-0.4H105V29.56h5.19a0.4,0.4,0,0,0,.4-0.4V27.42a0.41,0.41,0,0,0-.4-0.4H105V23.57h6.21a0.4,0.4,0,0,0,.4-0.4V21.45a0.4,0.4,0,0,0-.4-0.4h-8.55a0.4,0.4,0,0,0-.4.4v13.9h0Zm11.51,0a0.4,0.4,0,0,0,.4.4h1.93a0.41,0.41,0,0,0,.4-0.4V30h2.33l2.79,5.56a0.36,0.36,0,0,0,.34.19h2.2a0.4,0.4,0,0,0,.36-0.61l-2.88-5.33a4.63,4.63,0,0,0,3.11-4.24,4.55,4.55,0,0,0-4.58-4.51h-6a0.4,0.4,0,0,0-.4.4v13.9h0Zm2.75-7.6V23.57h3.42a2.09,2.09,0,0,1,2.08,2,2.14,2.14,0,0,1-2.08,2.14h-3.42Zm8.84,8h1.83a0.63,0.63,0,0,0,.61-0.42l1-2.27h6.28l1,2.27a0.6,0.6,0,0,0,.61.42h1.83a0.37,0.37,0,0,0,.36-0.55l-6.47-14.13a0.36,0.36,0,0,0-.36-0.23h-0.21a0.38,0.38,0,0,0-.36.23L125,35.21a0.37,0.37,0,0,0,.35.54h0Zm4.49-5,2.06-4.62H132l2.1,4.62h-4.22Zm9-2.31A7.53,7.53,0,0,0,146.33,36h0.06a7.21,7.21,0,0,0,5.1-2,0.4,0.4,0,0,0,0-.57h0L150.22,32a0.39,0.39,0,0,0-.52,0,5,5,0,0,1-3.21,1.2,4.87,4.87,0,0,1,0-9.74,5,5,0,0,1,3.23,1.24,0.34,0.34,0,0,0,.47.05l0.05-.05,1.28-1.32a0.39,0.39,0,0,0,0-.55l0,0a7.11,7.11,0,0,0-5.08-2,7.56,7.56,0,0,0-7.58,7.55s0,0,0,0h0Zm16.57,6.93a0.41,0.41,0,0,0,.4.4h2a0.41,0.41,0,0,0,.4-0.4V23.58h3.21a0.4,0.4,0,0,0,.4-0.4V21.45a0.4,0.4,0,0,0-.4-0.4h-9.18a0.4,0.4,0,0,0-.4.4v1.72a0.4,0.4,0,0,0,.4.4h3.21V35.35h0Zm7.71,0a0.41,0.41,0,0,0,.4.4h2a0.41,0.41,0,0,0,.4-0.4V21.45a0.41,0.41,0,0,0-.4-0.4h-2a0.41,0.41,0,0,0-.4.4v13.9Zm10.31,0.38a0.38,0.38,0,0,0,.36.23H174a0.38,0.38,0,0,0,.36-0.23l6.51-14.13a0.37,0.37,0,0,0-.36-0.55h-2.14a0.39,0.39,0,0,0-.36.23l-4,9H173.8l-4-9a0.39,0.39,0,0,0-.36-0.23h-2.14a0.37,0.37,0,0,0-.36.55Zm8.5-.38a0.4,0.4,0,0,0,.4.4h8.55a0.4,0.4,0,0,0,.4-0.4V33.63a0.4,0.4,0,0,0-.4-0.4h-6.21V29.56h5.19a0.4,0.4,0,0,0,.4-0.4V27.42a0.41,0.41,0,0,0-.4-0.4h-5.19V23.57h6.21a0.4,0.4,0,0,0,.4-0.4V21.45a0.4,0.4,0,0,0-.4-0.4H182.3a0.4,0.4,0,0,0-.4.4v13.9h0Zm-112,21.24h1.83a0.63,0.63,0,0,0,.61-0.42l1-2.27h6.28l1,2.27a0.6,0.6,0,0,0,.61.42H83.1A0.37,0.37,0,0,0,83.46,56L77,41.91a0.36,0.36,0,0,0-.36-0.23H76.42a0.38,0.38,0,0,0-.36.23L69.54,56A0.37,0.37,0,0,0,69.89,56.59Zm4.49-5,2.06-4.62h0.06l2.1,4.62H74.39Zm9-2.31a7.49,7.49,0,0,0,7.46,7.52h0.08a10.61,10.61,0,0,0,5.21-1.37,0.4,0.4,0,0,0,.17-0.34V49.7a0.4,0.4,0,0,0-.38-0.4h-4a0.39,0.39,0,0,0-.4.37s0,0,0,0v1.66a0.38,0.38,0,0,0,.38.38h1.7v1.79a6.57,6.57,0,0,1-2.5.52,4.84,4.84,0,1,1,3.15-8.46,0.36,0.36,0,0,0,.51,0l0,0,1.3-1.37a0.41,0.41,0,0,0,0-.58h0a7.94,7.94,0,0,0-5.12-2,7.54,7.54,0,0,0-7.53,7.55v0Zm15.16,6.93a0.4,0.4,0,0,0,.4.4h8.54a0.4,0.4,0,0,0,.4-0.4V54.47a0.4,0.4,0,0,0-.4-0.4h-6.21V50.39h5.19a0.4,0.4,0,0,0,.4-0.4V48.25a0.41,0.41,0,0,0-.4-0.4h-5.19V44.41h6.21a0.4,0.4,0,0,0,.4-0.4V42.29a0.4,0.4,0,0,0-.4-0.4H98.94a0.4,0.4,0,0,0-.4.4v13.9h0Zm11.51,0a0.41,0.41,0,0,0,.4.4h1.91a0.4,0.4,0,0,0,.4-0.4v-9h0l8.78,9.64h0.5a0.4,0.4,0,0,0,.4-0.38V42.29a0.41,0.41,0,0,0-.4-0.4h-1.93a0.4,0.4,0,0,0-.4.4V51h0L111,41.68h-0.52a0.4,0.4,0,0,0-.4.38V56.19h0Zm14.32-6.93a7.53,7.53,0,0,0,7.52,7.54h0.06a7.2,7.2,0,0,0,5.1-2,0.4,0.4,0,0,0,0-.57h0l-1.3-1.34a0.39,0.39,0,0,0-.52,0A5,5,0,0,1,132,54a4.87,4.87,0,0,1,0-9.74,5,5,0,0,1,3.23,1.24,0.34,0.34,0,0,0,.47.05l0.05-.05L137,44.22a0.39,0.39,0,0,0,0-.55l0,0a7.1,7.1,0,0,0-5.08-2,7.56,7.56,0,0,0-7.58,7.55S124.37,49.25,124.37,49.26ZM139,56.19a0.41,0.41,0,0,0,.4.4h2a0.41,0.41,0,0,0,.4-0.4V42.29a0.41,0.41,0,0,0-.4-0.4h-2a0.41,0.41,0,0,0-.4.4v13.9h0Zm5.73,0a0.4,0.4,0,0,0,.4.4h8.54a0.4,0.4,0,0,0,.4-0.4V54.47a0.4,0.4,0,0,0-.4-0.4h-6.21V50.39h5.19A0.4,0.4,0,0,0,153,50V48.25a0.41,0.41,0,0,0-.4-0.4h-5.19V44.41h6.21A0.4,0.4,0,0,0,154,44V42.29a0.4,0.4,0,0,0-.4-0.4h-8.54a0.4,0.4,0,0,0-.4.4v13.9h0Zm10.75-1a6.76,6.76,0,0,0,4.62,1.64c3,0,4.83-2,4.83-4.16,0-2.71-2.35-3.93-4.39-4.74-1.7-.69-2.48-1.37-2.48-2.35a1.67,1.67,0,0,1,1.85-1.47,6.91,6.91,0,0,1,2.92,1.15,0.55,0.55,0,0,0,.74-0.25l0.8-1.2a0.52,0.52,0,0,0-.12-0.69,7.39,7.39,0,0,0-4.2-1.41c-3.34,0-4.72,2.16-4.72,4,0,2.48,2,3.74,3.95,4.54,1.76,0.71,2.67,1.45,2.67,2.52A1.75,1.75,0,0,1,160,54.38h0a7,7,0,0,1-3.17-1.3,0.49,0.49,0,0,0-.68.1l0,0-0.76,1.3a0.41,0.41,0,0,0,0,.59l0.07,0h0Z" transform="translate(0 -0.01)"/></svg>