<svg xmlns="http://www.w3.org/2000/svg" viewBox="0 0 150 150"><defs><style>.a{fill:#333c45;}</style></defs><title>-icons</title><path class="a" d="M74.28,45V44.84L55.17,51.66l-1.55-.55,20.66-7.42V43.53l20.6,7.4-2,.7Zm20.6,7.95-2,.7-1.59-.57,2-.7Zm0,2-2,.7-1.58-.56,2-.71Zm0,2-2,.7-1.59-.57,2-.7Zm0,2-2,.71-1.58-.57,2-.7Zm0,2-6.8,2.41-1.59-.56,6.81-2.41Zm-0.18,5.43L92.81,67l-6.34-2.25,1.88-.67Zm0,2L92.8,69l-1.54-.55,1.87-.67Zm0,2L92.83,71l-1.57-.55,1.87-.67Zm0,2L92.85,73l-1.57-.56,1.88-.66Zm0,2L92.85,75l-1.54-.55,1.88-.67Zm0,2L74.26,83.71v0.16L53.62,76.45l2-.7,18.66,6.66v0.14L93.18,75.8ZM53.62,74.45l2-.7,1.59,0.57-2,.7Zm0-2,2-.7,1.58,0.56-2,.71Zm0-2,2-.71,1.59,0.57-2,.7Zm0-2,2-.69,1.58,0.56-2,.71Zm0-2L60,64.2l1.6,0.57L55.22,67Zm0-5.35,1.87-.67,6.29,2.23-1.88.67Zm0-2,1.87-.68L57.09,59l-1.87.67Zm0-2,1.87-.67L57.08,57l-1.87.67Zm0-2,1.87-.67L57.07,55l-1.87.67Zm33.63-1.48L74.28,49V48.84L60.8,53.66l-1.57-.56,15.05-5.4V47.54l15,5.39Zm1.23,0.44,2-.71,1.58,0.56-2,.71Zm-1.22,1.56-1.59-.56,2-.72,1.59,0.57Zm1.23,0.44,2-.71,1.57,0.57-2,.7Zm-1.24,1.56-1.58-.56,2-.71,1.59,0.56Zm1.22,0.44,2-.71,1.59,0.57-2,.71Zm-6.05,3.28-1.59-.57,6.83-2.43,1.59,0.57Zm1.22,0.44,6.83-2.43,1.57,0.57-6.81,2.42Zm-1.23,1.55-1.57-.56,1.87-.66,1.59,0.56Zm1.23,0.44,1.88-.67,1.59,0.56-1.89.67Zm-1.22,1.56-1.59-.56,1.88-.66,1.59,0.56Zm1.23,0.43,1.87-.67,6.34,2.25L90,68ZM87.22,69l-6.36-2.26,1.88-.67,6.36,2.25Zm1.24,0.44,1.87-.67,1.55,0.55L90,70ZM87.22,71l-1.56-.56,1.87-.67,1.57,0.56Zm1.24,0.45,1.87-.67,1.58,0.56L90,72ZM87.25,73l-1.59-.57,1.87-.68,1.58,0.56Zm1.24,0.44,1.88-.67,1.56,0.56L90.06,74ZM60,73.32L58,74l-1.58-.57,2-.71Zm1.22-1.57,1.59,0.56-2,.71-1.58-.57ZM60,71.32L58,72l-1.57-.57,2-.71Zm1.24-1.56,1.58,0.56-2,.71-1.57-.56ZM60,69.32L58,70l-1.58-.57,2-.71ZM65.6,66.2l1.59,0.57L60.81,69l-1.58-.58Zm-1.24-.43L58,68l-1.57-.56,6.34-2.26ZM62.79,63.2l1.59,0.57-1.32.47-1.6-.57Zm1.86-1.53-1.88.67L56.47,60.1l1.87-.67Zm-3.51-3.24,6.32,2.25-1.89.67-6.3-2.24ZM59.9,58L58,58.66l-1.56-.55,1.86-.67Zm1.22-1.56L62.69,57l-1.87.67-1.57-.56ZM59.88,56L58,56.66l-1.56-.55,1.87-.67Zm21.78-.37L74.28,53V52.85l-7.86,2.8-1.59-.56,9.44-3.39V51.54l9.39,3.37Zm1.22,0.44,2-.72,1.59,0.57-2,.71Zm-6.07,3.29-1.6-.57,6.87-2.44,1.58,0.57ZM78,59.78l6.85-2.44,1.57,0.57-6.84,2.44Zm-1.23,1.56-1.59-.57,1.88-.67,1.58,0.57ZM78,61.78l1.88-.67,1.58,0.57-1.88.67Zm-1.22,1.56-1.6-.56,1.88-.66,1.59,0.56ZM78,63.78l1.89-.67,1.58,0.56-1.88.67Zm-1.22,1.56-1.58-.56,1.88-.66,1.58,0.56ZM78,65.77l1.89-.66,1.59,0.56-1.88.67Zm-1.22,1.56-1.6-.56,1.89-.67,1.59,0.56Zm1.23,0.44,1.88-.67,6.37,2.26L84.43,70ZM81.64,71l-6.39-2.27,1.87-.66,6.38,2.27Zm1.22,0.44,1.88-.67,1.57,0.56L84.43,72Zm-17.24-.16-2,.72L62,71.47l2-.72Zm5.61-3.12,1.6,0.56L66.41,71l-1.58-.57ZM70,67.76L63.61,70,62,69.47l6.38-2.26Zm-2.82-3-1.32.47-1.59-.56,1.33-.47Zm-1.63-2.55,1.61,0.56-1.29.46-1.6-.57Zm2.83-1L70,61.78l-1.32.47L67,61.69Zm1.87-1.53-1.88.67L62.05,58.1l1.87-.67Zm4,0.57-1.61-.56,1.6-.57,1.6,0.57Zm0,2-1.58-.56,1.61-.57,1.58,0.56Zm0.05,2-1.61-.56,1.58-.56,1.59,0.57Zm0,2-1.58-.57,1.59-.56,1.58,0.56Zm0,2-1.6-.57,1.58-.56,1.59,0.56ZM70,65.77l-1.31.46-1.6-.57,1.32-.46Zm0-2-1.31.46-1.58-.56,1.3-.46Zm-0.08.9,1.31-.47,1.61,0.57-1.33.47Zm2.89,2.09-1.3.46-1.58-.56,1.3-.46Zm0-4-1.29.46-1.59-.56,1.31-.47ZM71.2,60.21l1.6,0.57-1.32.47-1.59-.56Zm3.06,13.48v0.17l-6.63-2.38,6.69-2.38,6.39,2.27Zm0-20V53.53l6.59,2.37L74,58.35,67.64,56.1Zm-10.66,3L62,56.1l1.87-.67L65.5,56Zm3.1-.24,6.35,2.26-1.88.67L64.85,57.1Zm7.54,19.26v0.18l-9.43-3.39,2-.72,7.41,2.65v0.14l7.67-2.73,1.58,0.56Zm0,2v0.16L62,73.47l2-.72L74.26,76.4v0.13L84.73,72.8l1.6,0.57Zm0-28V49.53l12.19,4.38-2,.71L74.28,51V50.85L63.61,54.66,62,54.09ZM58,54.66l-1.56-.55,1.87-.67L59.87,54Zm3.11-.23L62.69,55l-1.88.67-1.57-.56ZM74.26,79.71v0.15l-15-5.4,2-.71,13,4.65v0.15l13.3-4.75,1.58,0.57Zm0,2v0.16L56.42,75.46l2-.71L74.26,80.4v0.16l16.12-5.76,1.55,0.55Zm0-36V45.53l17.8,6.4-2,.71L74.28,47V46.84L58,52.66l-1.56-.55ZM53.63,53.11l1.86-.67L57.05,53l-1.87.67ZM95.87,51h0V50.69L74.28,43V42.83L52.67,50.55v0.22h0v0.66h0v0h0L54.24,52l-1.57.57v0.21h0v0.66h0v0l0,0L54.26,54l-1.59.57v0.2h0v0.66h0v0l0.05,0L54.27,56l-1.6.57v0.19h0v0.65h0v0l0.07,0L54.28,58l-1.61.58v0.18h0v0.66h0v0.06l0.07,0L54.29,60l-1.62.58v0.18h0V61.4h0v0.06l0.09,0L59,63.66l-6.36,2.26v0.61h0V66.7l1.72,0.61-1.73.61v0.58h0V68.7l1.71,0.61-1.71.61v0.58h0V70.7l1.72,0.61-1.72.61v0.54h0V72.7l1.71,0.61-1.71.61v0.5h0v0.28l1.7,0.61-1.71.61V76.4h0v0.31l21.59,7.71v0.15l21.61-7.71V76.75h0V76.1l-1.77-.63,1.77-.63V74.76h0V74.1l-1.77-.63,1.77-.63V72.11l-1.79-.63,1.79-.64V70.11l-1.81-.65,1.81-.64V68.12l-1.81-.65,1.81-.64v-0.7l-6.59-2.34,6.59-2.35V60.93h0V60.7l-1.77-.63,1.77-.63V58.69l-1.76-.62,1.76-.64V56.7l-1.76-.63,1.76-.62V54.69l-1.75-.62,1.75-.62V52.94h0V52.69l-1.75-.63,1.75-.62V51Z"/><path class="a" d="M84.33,99.92v0c0,1.79,1.07,2.72,3.83,3.32,2.39,0.51,2.85,1.11,2.85,2,0,1.11-1,1.85-2.41,1.85a5.23,5.23,0,0,1-3.79-1.56l-0.06-.06-0.9,1.06,0.07,0.06a6.6,6.6,0,0,0,4.64,1.82c2.3,0,3.91-1.34,3.91-3.26,0-1.74-1.11-2.72-3.72-3.28s-3-1.13-3-2.09,0.94-1.75,2.3-1.75a4.83,4.83,0,0,1,3.18,1.19l0.07,0.06,0.84-1.11-0.07-.05a5.92,5.92,0,0,0-4-1.39c-2.18,0-3.77,1.32-3.77,3.14"/><path class="a" d="M99.45,98.28c1.86,0,2.92.86,2.92,2.34s-1.19,2.41-3,2.41H96.71V98.28h2.75Zm-4.1-1.34H95.27v11.38h1.44v-4h2.64c2.23,0,4.49-1.16,4.49-3.75,0-2.24-1.68-3.67-4.28-3.67h-4.2Z"/><polygon class="a" points="114.55 96.94 106.36 96.94 106.36 108.32 114.72 108.32 114.72 106.99 107.8 106.99 107.8 103.24 113.92 103.24 113.92 101.92 107.8 101.92 107.8 98.27 114.64 98.27 114.64 96.94 114.55 96.94"/><path class="a" d="M127,96.94H125.5l-3.76,5.54L118,96.94h-1.74l4.73,6.89v4.49h1.45v-4.51l4.73-6.87H127Z"/><polygon class="a" points="137.53 96.94 129.35 96.94 129.35 108.32 137.7 108.32 137.7 106.99 130.78 106.99 130.78 103.24 136.9 103.24 136.9 101.92 130.78 101.92 130.78 98.27 137.62 98.27 137.62 96.94 137.53 96.94"/><path class="a" d="M145.28,98.28c1.74,0,2.78.79,2.78,2.12s-1.09,2.25-2.8,2.25h-3.35V98.28h3.37Zm-4.72-1.34h-0.09v11.38h1.44V104H145l3.25,4.35H150l-3.47-4.61a3.3,3.3,0,0,0,3-3.32,3.21,3.21,0,0,0-.89-2.3,4.53,4.53,0,0,0-3.25-1.15h-4.82Z"/><polygon class="a" points="10.97 96.94 0.64 96.94 0.64 98.28 5.12 98.28 5.12 108.32 6.58 108.32 6.58 98.28 11.06 98.28 11.06 96.94 10.97 96.94"/><polygon class="a" points="14.83 96.94 13.47 96.94 13.47 108.32 14.91 108.32 14.91 96.94 14.83 96.94"/><path class="a" d="M18.14,99.92v0c0,1.79,1.07,2.72,3.83,3.32,2.39,0.51,2.85,1.11,2.85,2,0,1.11-1,1.85-2.41,1.85a5.21,5.21,0,0,1-3.78-1.56l-0.07-.06-0.9,1.06,0.06,0.06a6.61,6.61,0,0,0,4.64,1.82c2.3,0,3.91-1.34,3.91-3.26,0-1.74-1.11-2.72-3.72-3.28s-3-1.13-3-2.09,1-1.75,2.3-1.75A4.83,4.83,0,0,1,25,99.29l0.07,0.06L26,98.23l-0.06-.05a5.92,5.92,0,0,0-4-1.39c-2.18,0-3.77,1.32-3.77,3.14"/><polygon class="a" points="38.15 96.94 36.8 96.94 36.8 101.92 30.51 101.92 30.51 96.94 29.07 96.94 29.07 108.32 30.51 108.32 30.51 103.28 36.8 103.28 36.8 108.32 38.24 108.32 38.24 96.94 38.15 96.94"/><path class="a" d="M60.88,99.57l2.27,4.48H58.59Zm0-2.71-5.83,11.45h1.49l1.54-3h5.63l1.46,3h1.55Z"/><path class="a" d="M78,96.94H76.64v8.82l-6.93-8.82H68.39v11.38h1.4v-9l7.11,9H78V96.94H78Z"/><polygon class="a" points="51.74 96.94 51.74 96.94 51.72 96.94 47.46 105.54 43.17 96.94 43.13 96.96 43.13 96.94 41.72 96.94 41.72 108.32 43.12 108.32 43.13 99.91 47.45 108.4 47.52 108.4 51.74 99.94 51.74 108.32 53.19 108.32 53.19 96.94 51.74 96.94"/></svg>