<svg xmlns="http://www.w3.org/2000/svg" viewBox="0 0 150 150"><defs><style>.a{fill:#031e32;fill-rule:evenodd;}.b{fill:#35bdf6;}</style></defs><title>twitter-icon</title><path class="a" d="M75,0A75,75,0,1,1,0,75,75,75,0,0,1,75,0Z"/><path class="b" d="M100.15,58.42a20.54,20.54,0,0,1-3.58,1.21,11.16,11.16,0,0,0,2.95-4.7,0.59,0.59,0,0,0-.86-0.68,20.67,20.67,0,0,1-5.48,2.26,1.39,1.39,0,0,1-.34,0,1.45,1.45,0,0,1-1-.37,11.2,11.2,0,0,0-7.41-2.8,12,12,0,0,0-3.55.55,10.85,10.85,0,0,0-7.31,7.82,12,12,0,0,0-.27,4.12,0.4,0.4,0,0,1-.1.31,0.42,0.42,0,0,1-.31.14h0A29.37,29.37,0,0,1,52.71,55.55a0.59,0.59,0,0,0-1,.07,11.22,11.22,0,0,0,1.82,13.62,10,10,0,0,1-2.56-1,0.59,0.59,0,0,0-.87.51,11.22,11.22,0,0,0,6.54,10.33H56.45a10,10,0,0,1-1.89-.18,0.59,0.59,0,0,0-.67.75,11.23,11.23,0,0,0,8.87,7.64,20.67,20.67,0,0,1-11.58,3.52h-1.3a0.86,0.86,0,0,0-.84.65,0.89,0.89,0,0,0,.42,1,30.74,30.74,0,0,0,15.45,4.17,31.16,31.16,0,0,0,13.2-2.8,29.15,29.15,0,0,0,9.66-7.24,31.73,31.73,0,0,0,5.92-9.91,31.3,31.3,0,0,0,2-10.84V65.65a1.91,1.91,0,0,1,.71-1.48,22.15,22.15,0,0,0,4.45-4.89,0.59,0.59,0,0,0-.72-0.86h0Zm0,0"/></svg>