<svg xmlns="http://www.w3.org/2000/svg" viewBox="0 0 150 150"><defs><style>.a{fill:#333c45;}</style></defs><title>-icons</title><path class="a" d="M37.3,79.9H34.51L33.13,68l-0.06-2.49L33,68,31.6,79.9H28.81l-2.49-23h3l1,13.06,0.06,2.61L30.43,70l1.44-13.06h2.37L35.65,70l0.09,2.64L35.8,70l1-13.06h3Z"/><path class="a" d="M58.8,79.87h-5a1.7,1.7,0,0,1-1.89-2v-19a1.7,1.7,0,0,1,1.89-2h5a1.71,1.71,0,0,1,1.92,2v19A1.71,1.71,0,0,1,58.8,79.87Zm-1-20.29h-3V77.23h3V59.58Z"/><path class="a" d="M79.48,79.87L77,69.61V67.15h2.1V59.58H76.27V79.87H73.38V56.94H80a1.72,1.72,0,0,1,2,2v8.46a2,2,0,0,1-.38,1.34,1.62,1.62,0,0,1-1.16.5H79.78l2.67,10.57v0.12h-3Z"/><path class="a" d="M99.86,79.87L96.92,69.19V79.87H94V56.94h2.88V67l2.64-10.09h3.09v0.12L99.44,68,103,79.75v0.12H99.86Z"/><path class="a" d="M121.38,79.87h-4.65a1.72,1.72,0,0,1-1.92-2V72.25h2.88v5h2.7V72.5l-5-6.8a2.51,2.51,0,0,1-.47-0.79,3.5,3.5,0,0,1-.1-1v-5a1.71,1.71,0,0,1,1.92-1.95h4.65a1.73,1.73,0,0,1,2,2v5.32h-2.94V59.58h-2.7V64l5,6.8a3.39,3.39,0,0,1,.48.81,2.92,2.92,0,0,1,.12,1v5.34A1.72,1.72,0,0,1,121.38,79.87Z"/><path class="a" d="M37.24,88.57h2.62v2.88a2.27,2.27,0,0,1-.46.28,3.62,3.62,0,0,1-.53.19,4,4,0,0,1-.57.11,4.65,4.65,0,0,1-.58,0,3.84,3.84,0,0,1-1.23-.19,2.64,2.64,0,0,1-1-.6,2.81,2.81,0,0,1-.67-1,4.19,4.19,0,0,1-.24-1.5,3.68,3.68,0,0,1,.29-1.54,2.9,2.9,0,0,1,1.82-1.61,3.93,3.93,0,0,1,1.16-.18,5.61,5.61,0,0,1,1,.09,6.37,6.37,0,0,1,.71.17l-0.28,1.13a3.94,3.94,0,0,0-.56-0.14A4.58,4.58,0,0,0,38,86.59a2.57,2.57,0,0,0-.79.11,1.58,1.58,0,0,0-.62.37,1.7,1.7,0,0,0-.41.67,3,3,0,0,0-.15,1,2.85,2.85,0,0,0,.15,1,1.85,1.85,0,0,0,.4.66,1.51,1.51,0,0,0,.58.38,2,2,0,0,0,.7.12,2.33,2.33,0,0,0,.5-0.06,1.2,1.2,0,0,0,.43-0.17V89.54l-1.52-.15V88.57Z"/><path class="a" d="M51.82,90.57H49.66l-0.52,1.37H47.78l2.51-6.46h1l2.52,6.46H52.37ZM50,89.5H51.5L51,88.16l-0.22-1h0l-0.22,1Z"/><path class="a" d="M66.34,91.94H61.92V85.52h1.36v5.23h3.06v1.19Z"/><path class="a" d="M79,91.94H74.54V85.52H75.9v5.23H79v1.19Z"/><path class="a" d="M87.17,85.52H91.3v1.19H88.52v1.39H91V89.3H88.52v1.45h2.82v1.19H87.17V85.52Z"/><path class="a" d="M99.87,85.59l0.48-.07,0.53-.05,0.52,0h0.46a5.55,5.55,0,0,1,1,.08,2.75,2.75,0,0,1,.84.28,1.64,1.64,0,0,1,.6.55,1.59,1.59,0,0,1,.23.88,2.07,2.07,0,0,1-.39,1.3,1.94,1.94,0,0,1-1.08.69l0.49,0.28,1.6,2.43h-1.58l-1.6-2.48-0.71-.11v2.59H99.87V85.59Zm2.08,1h-0.41a1.65,1.65,0,0,0-.32,0v1.77h0.58a1.64,1.64,0,0,0,.91-0.22,0.84,0.84,0,0,0,.33-0.76,0.72,0.72,0,0,0-.28-0.61A1.35,1.35,0,0,0,102,86.62Z"/><path class="a" d="M114.45,89.58l-2.29-4.05h1.61l1.28,2.36,0.15,0.69h0l0.16-.71,1.24-2.34h1.46l-2.29,4v2.37h-1.36V89.58Z"/><path class="a" d="M149.33,149H0.32V0h149V149ZM3.8,145.53H145.85V3.47H3.8V145.53Z"/></svg>